<svg width="15.5" height="18" version="1.1" viewBox="0 0 4.101 4.7625" xml:space="preserve" xmlns="http://www.w3.org/2000/svg">
<path fill="current" d="m1.5178 4.6672c-0.14161-0.11189-0.20226-0.18312-0.24665-0.28968-0.031432-0.075462-0.02956-0.093671 0.013978-0.13547 0.047326-0.04545 0.053954-0.043224 0.11242 0.037726 0.12009 0.16626 0.27467 0.2944 0.41077 0.34051 0.16808 0.056941 0.26868 0.058043 0.46864 0.00514 0.15453-0.040893 0.27687-0.1401 0.42719-0.34639 0.058464-0.080233 0.065102-0.082416 0.11242-0.036976 0.044152 0.042401 0.045679 0.059381 0.01245 0.13913-0.040611 0.09747-0.17141 0.24474-0.28714 0.3233-0.058905 0.039982-0.14471 0.048392-0.49348 0.048392h-0.42218zm-1.3125-0.62469c-0.18795-0.12482-0.20186-0.15786-0.20186-0.47944v-0.298l0.14459-0.15588c0.16538-0.17829 0.28797-0.3494 0.28797-0.40195 0-0.019805 0.011299-0.048253 0.025094-0.063243 0.070149-0.076146 0.14644-0.45844 0.17579-0.88095 0.030518-0.4392 0.041472-0.48822 0.17097-0.76478 0.11279-0.24089 0.39024-0.50241 0.62931-0.59319 0.067922-0.025796 0.12351-0.061274 0.12352-0.078842 4.2e-5 -0.060707 0.1878-0.24075 0.29908-0.2868 0.14976-0.06197 0.28156-0.058204 0.41689 0.01193 0.12158 0.063008 0.26448 0.20596 0.26448 0.26458 0 0.020072 0.068126 0.068475 0.1514 0.10757 0.083267 0.039095 0.17735 0.090526 0.20907 0.11429 0.15908 0.11918 0.36603 0.36478 0.44182 0.5243 0.075519 0.15896 0.088421 0.22829 0.11862 0.63713 0.053093 0.7189 0.16401 1.045 0.4622 1.3588l0.17411 0.18324v0.31324c0 0.17228-0.013892 0.33904-0.030862 0.37058-0.01698 0.031541-0.089422 0.082298-0.161 0.1128-0.12403 0.052865-0.21215 0.05539-1.8796 0.053956-1.5846-0.0013916-1.7563-0.0059871-1.8216-0.049388zm3.5984-0.15195c0.13092-0.045375 0.21049-0.21807 0.17443-0.37855-0.033304-0.1482-0.08487-0.23192-0.22979-0.3731-0.21459-0.20904-0.34588-0.51393-0.44092-1.0239-0.024976-0.13404-0.045561-0.34694-0.045744-0.4731-3.261e-4 -0.23451-0.045852-0.46178-0.11785-0.58843-0.088658-0.15592-0.36321-0.40033-0.5387-0.47953-0.14625-0.066014-0.18878-0.10194-0.24438-0.20649-0.053836-0.10123-0.092026-0.13476-0.19071-0.16747-0.10972-0.036367-0.13727-0.035628-0.24854 0.0066335-0.09916 0.03765-0.13704 0.07268-0.18241 0.16865-0.048262 0.10208-0.083138 0.13179-0.22177 0.18892-0.2339 0.096389-0.42738 0.28495-0.55422 0.54012-0.09972 0.20061-0.10636 0.23185-0.12532 0.58976-0.037189 0.70187-0.17877 1.1301-0.48123 1.4557-0.15778 0.16983-0.23778 0.31786-0.23778 0.43999 0 0.11327 0.089368 0.27021 0.1708 0.29995 0.10801 0.039448 3.4005 0.040272 3.5141 8.666e-4z" stroke-width=".10868"/></svg>
