<svg width="19" height="19" version="1.1" viewBox="0 0 5.0271 5.0271" xml:space="preserve" xmlns="http://www.w3.org/2000/svg" xmlns:xlink="http://www.w3.org/1999/xlink"><image x=".011687" y=".0089423" width="5.001" height="5.001" preserveAspectRatio="none"></image>
<path fill="current" d="m0.67939 4.9963c0-0.00748-0.0092-0.013605-0.020438-0.013605-0.011239 0-0.020438-0.00544-0.020438-0.012139 0-0.00668-0.015237-0.01596-0.033859-0.020667-0.020888-0.00524-0.037114-0.021453-0.042357-0.042383-0.004656-0.018628-0.013965-0.033855-0.020647-0.033855-0.006682 0-0.01215-0.015332-0.01215-0.034063 0-0.018733-0.006132-0.034063-0.013625-0.034063-0.009021 0-0.013625-0.65181-0.013625-1.9282 0-1.0605 0.004656-1.9282 0.010303-1.9282 0.005666 0 0.018983-0.019935 0.029595-0.044266 0.025231-0.057913 0.069894-0.10508 0.099777-0.10537 0.013118-1.57e-4 0.023844-0.006387 0.023844-0.013866 0-0.007481 0.018397-0.013604 0.040881-0.013604 0.022484 0 0.040881-0.006123 0.040881-0.013604 0-0.008583 0.088573-0.013604 0.23847-0.013604 0.14989 0 0.23847 0.005237 0.23847 0.013604 0 0.007481 0.00839 0.013604 0.018669 0.013604 0.011993 0 0.021118-0.021715 0.025519-0.06077 0.00576-0.051121 0.017429-0.070622 0.073283-0.12264 0.036538-0.034011 0.077178-0.061868 0.09031-0.061868 0.013133 0 0.023875-0.006123 0.023875-0.013604 0-0.008268 0.060205-0.013657 0.1533-0.013657l0.1533-2.61e-5v-0.15895c0-0.11505 0.0047-0.16052 0.017032-0.16463 0.00936-0.00314 0.017063-0.01282 0.0171-0.021558 9.8e-5 -0.02454 0.091277-0.1181 0.11507-0.1181 0.011621 0 0.021134-0.006132 0.021134-0.013625 0-0.008869 0.20213-0.013625 0.57913-0.013625 0.377 0 0.57913 0.004762 0.57913 0.013625 0 0.007493 0.00952 0.013625 0.021135 0.013625 0.023791 0 0.11497 0.093582 0.11507 0.1181 3.61e-5 0.008739 0.00752 0.018366 0.016644 0.021401 0.011721 0.003662 0.016713 0.052115 0.017032 0.16461l4.63e-4 0.15909 0.1533 4.183e-5c0.093086 3.141e-5 0.1533 0.005393 0.1533 0.013657 0 0.007481 0.010742 0.013604 0.023875 0.013604s0.053771 0.027837 0.09031 0.061868c0.055855 0.052011 0.067525 0.071543 0.073283 0.12264 0.00441 0.039034 0.013525 0.06077 0.025519 0.06077 0.010266 0 0.01867-0.006123 0.01867-0.013604 0-0.008583 0.088573-0.013604 0.23847-0.013604 0.14989 0 0.23847 0.005237 0.23847 0.013604 0 0.007481 0.014631 0.013604 0.03251 0.013604 0.063748 0 0.13792 0.056322 0.17049 0.12946 0.010012 0.0225 0.023624 0.051539 0.030243 0.064542 0.017362 0.034116 0.015787 3.8395-0.00156 3.8395-0.00749 0-0.013625 0.015331-0.013625 0.034063 0 0.018733-0.00547 0.034063-0.01215 0.034063-0.00667 0-0.015975 0.015227-0.020647 0.033855-0.00525 0.020878-0.021469 0.037097-0.042357 0.042383-0.018622 0.0047-0.033859 0.013971-0.033859 0.020668 0 0.00668-0.0092 0.012139-0.020438 0.012139-0.01124 0-0.020438 0.00612-0.020438 0.013605 0 0.00899-0.62001 0.013605-1.8328 0.013605s-1.8328-0.0047-1.8328-0.013605zm3.5838-2.1155v-1.8771h-0.50109l-0.00922 0.061496c-0.00685 0.04568-0.021814 0.073735-0.058144 0.10901-0.026905 0.026162-0.057179 0.047511-0.067271 0.047511-0.010093 0-0.018351 0.00612-0.018351 0.013605 0 0.00748-0.021464 0.013605-0.047694 0.013605s-0.047694 0.00612-0.047694 0.013605c0 0.00895-0.34294 0.013605-1.0016 0.013605-0.65862 0-1.0016-0.0047-1.0016-0.013605 0-0.00748-0.021463-0.013605-0.047694-0.013605s-0.047694-0.00612-0.047694-0.013605c0-0.00748-0.00826-0.013605-0.018351-0.013605-0.010093 0-0.040364-0.0214-0.067272-0.047511-0.036328-0.035267-0.051294-0.063339-0.058145-0.10901l-0.00922-0.061496h-0.5011v3.7541h3.502zm-2.9979-0.24869v-0.12945h2.4937v0.25891h-2.4937zm0.00287-0.75287 0.00392-0.11923h2.4801l0.00784 0.23846h-2.4958zm2.2387-0.99134v-0.12264l-0.48375-0.0073255v-0.49674h-1.022v0.49674l-0.48375 0.007322-0.00402 0.10781c-0.00219 0.059294-8.372e-4 0.11606 0.00302 0.12613 0.00583 0.015174 0.1782 0.017738 0.99877 0.01486l0.99173-0.00366z" stroke-width=".051502"/></svg>
