<svg width="19" height="20" version="1.1" viewBox="0 0 6.0854 6.0854" xml:space="preserve" xmlns="http://www.w3.org/2000/svg"><path d="m2.6347 6.0291c-0.070414-0.0065425-0.17886-0.023307-0.24099-0.037255-0.06213-0.013948-0.12991-0.028666-0.15062-0.032707-0.20679-0.040353-0.66338-0.23237-0.83864-0.35269-0.034628-0.023773-0.067113-0.043223-0.072186-0.043223-0.00508 0-0.047079-0.028805-0.093344-0.064012-0.046266-0.035208-0.098505-0.073916-0.11609-0.086019-0.14069-0.096853-0.29971-0.25415-0.42695-0.42231-0.047008-0.06213-0.089507-0.11635-0.094442-0.12049-0.028482-0.023902-0.18953-0.30194-0.253-0.43679-0.13714-0.29137-0.18765-0.43823-0.2435-0.7079-0.052545-0.25373-0.065534-0.42551-0.056344-0.74518 0.0073825-0.25679 0.015385-0.33294 0.053856-0.51247 0.087935-0.41036 0.24878-0.80847 0.4374-1.0826 0.025541-0.037121 0.046437-0.07232 0.046437-0.078218 0-0.0059 0.028963-0.045343 0.064364-0.087657 0.035399-0.042312 0.084162-0.10404 0.10836-0.13718 0.069857-0.095659 0.30461-0.32192 0.45237-0.436 0.44113-0.34058 0.9824-0.55175 1.5438-0.60227 0.13352-0.012016 0.16676 0.003721 0.16893 0.079979 0.0016861 0.059382-0.0089344 0.06731-0.14633 0.10925-0.12214 0.037279-0.12877 0.039843-0.27864 0.10769-0.13733 0.06217-0.29785 0.15936-0.39914 0.24166-0.17346 0.14094-0.41812 0.41246-0.47949 0.53215-0.013404 0.026137-0.033001 0.056638-0.043549 0.067777-0.045455 0.048006-0.20541 0.4153-0.25807 0.5926-0.064962 0.21871-0.11506 0.54986-0.11506 0.76055 0 0.27052 0.078845 0.70292 0.16892 0.92637 0.22699 0.56309 0.56621 0.93366 1.0737 1.1729 0.38275 0.18042 0.66957 0.24324 1.107 0.24246 0.31294-5.693e-4 0.5016-0.028048 0.77173-0.11244 0.24568-0.076753 0.27928-0.090191 0.45911-0.18364 0.30892-0.16053 0.54609-0.36007 0.75474-0.63499 0.14271-0.18804 0.23777-0.37728 0.31135-0.61982 0.050946-0.16794 0.092137-0.20625 0.1647-0.15318 0.022864 0.016719 0.027012 0.039724 0.025117 0.13932-0.00851 0.44741-0.21484 1.0275-0.52148 1.466-0.13975 0.19988-0.42315 0.49243-0.61257 0.63236-0.068842 0.050854-0.13322 0.098986-0.14306 0.10696-0.00984 0.00798-0.07423 0.047773-0.14309 0.088441-0.3922 0.23164-0.85768 0.38559-1.2814 0.4238-0.18073 0.016298-0.52201 0.015726-0.70393-0.0011783zm0.70037-0.17228c0.37634-0.055334 0.57184-0.1075 0.85034-0.2269 0.6182-0.26505 1.1003-0.70963 1.3952-1.2867 0.074367-0.14552 0.11614-0.25938 0.092974-0.25343-0.010536 0.002704-0.066558 0.055656-0.12449 0.11767-0.16116 0.17251-0.28725 0.28164-0.44422 0.38447-0.32365 0.21201-0.59031 0.32202-0.99347 0.40985-0.1777 0.038714-0.21117 0.041143-0.56542 0.041044-0.35315-1.137e-4 -0.38803-0.0026299-0.56149-0.040769-1.0156-0.2233-1.668-0.87618-1.8959-1.8973-0.038713-0.17344-0.041295-0.20769-0.041761-0.55388-4.44e-4 -0.32834 0.0033786-0.3881 0.034662-0.54222 0.072805-0.35868 0.22234-0.73246 0.3976-0.99385 0.14377-0.21442 0.24804-0.33485 0.4493-0.51891 0.11662-0.10666 0.067767-0.10644-0.14919 6.8491e-4 -0.24482 0.12088-0.44832 0.26255-0.64604 0.44974-0.49234 0.46612-0.7783 1.022-0.88816 1.7265-0.05287 0.33903-0.02325 0.8691 0.065147 1.1658 0.062643 0.21028 0.13722 0.40757 0.20837 0.55124 0.41555 0.83906 1.1862 1.3541 2.2141 1.4796 0.11868 0.014494 0.46765 0.00716 0.60247-0.012665z" stroke-width=".056926" fill="current"/></svg>
