<svg width="19" height="18" viewBox="0 0 19 18" fill="none" xmlns="http://www.w3.org/2000/svg">
<path d="M10.9844 0.5625H18.1094C18.5918 0.5625 19 0.970703 19 1.45312V7.39062C19 7.91016 18.5918 8.28125 18.1094 8.28125H10.9844C10.4648 8.28125 10.0938 7.91016 10.0938 7.39062V1.45312C10.0938 0.970703 10.4648 0.5625 10.9844 0.5625ZM8.01562 0.5625C8.49805 0.5625 8.90625 0.970703 8.90625 1.45312V7.39062C8.90625 7.91016 8.49805 8.28125 8.01562 8.28125H0.890625C0.371094 8.28125 0 7.91016 0 7.39062V1.45312C0 0.970703 0.371094 0.5625 0.890625 0.5625H8.01562ZM0 10.3594C0 9.87695 0.371094 9.46875 0.890625 9.46875H8.01562C8.49805 9.46875 8.90625 9.87695 8.90625 10.3594V16.2969C8.90625 16.8164 8.49805 17.1875 8.01562 17.1875H0.890625C0.371094 17.1875 0 16.8164 0 16.2969V10.3594ZM10.9844 17.1875C10.4648 17.1875 10.0938 16.8164 10.0938 16.2969V10.3594C10.0938 9.87695 10.4648 9.46875 10.9844 9.46875H18.1094C18.5918 9.46875 19 9.87695 19 10.3594V16.2969C19 16.8164 18.5918 17.1875 18.1094 17.1875H10.9844Z" fill="current"/>
</svg>
