<svg width="19" height="16.74" version="1.1" viewBox="0 0 5.0271 4.4291" xml:space="preserve" xmlns="http://www.w3.org/2000/svg">
<path fill="current" d="m2.4664 4.3906c-0.00976-0.00976-0.023194-0.017761-0.029848-0.017761-0.00665 0-0.012097-0.00761-0.012097-0.016939 0-0.00932-0.00762-0.016939-0.016935-0.016939-0.00931 0-0.016935-0.00761-0.016935-0.016939 0-0.00932-0.00708-0.016939-0.015726-0.016939-0.00865 0-0.018652-0.00761-0.022224-0.016939-0.00358-0.00932-0.019359-0.016939-0.035077-0.016939-0.015717 0-0.028579-0.00533-0.028579-0.011855 0-0.013839-0.071486-0.089759-0.084518-0.089759-0.00486 0-0.020624-0.012698-0.035012-0.028223-0.014386-0.015526-0.03656-0.028226-0.049275-0.028226-0.013024 0-0.023118-0.0074-0.023118-0.016939 0-0.00932-0.00762-0.016939-0.016935-0.016939-0.00931 0-0.016935-0.00761-0.016935-0.016939 0-0.00932-0.00762-0.016939-0.016935-0.016939-0.00931 0-0.016935-0.00761-0.016935-0.016939 0-0.0093-0.00762-0.016939-0.016935-0.016939-0.00931 0-0.016935-0.00761-0.016935-0.016939 0-0.010533-0.010663-0.016939-0.028224-0.016939-0.017562 0-0.028224-0.00641-0.028224-0.016939 0-0.00932-0.00762-0.016939-0.016935-0.016939-0.00931 0-0.016935-0.00761-0.016935-0.016939 0-0.00932-0.00762-0.016939-0.016935-0.016939-0.00931 0-0.016935-0.00761-0.016935-0.016939 0-0.00932-0.00762-0.016939-0.016935-0.016939-0.00931 0-0.016935-0.00508-0.016935-0.011286 0-0.00621-0.00762-0.011285-0.016935-0.011285-0.00931 0-0.016935-0.00761-0.016935-0.016939 0-0.011285-0.01129-0.016939-0.03387-0.016939-0.022581 0-0.03387-0.00566-0.03387-0.016939 0-0.00932-0.00507-0.016939-0.01129-0.016939-0.00621 0-0.011291-0.00761-0.011291-0.016939 0-0.0093-0.00762-0.016939-0.016935-0.016939-0.00931 0-0.016935-0.00761-0.016935-0.016939 0-0.0093-0.00708-0.016939-0.015726-0.016939-0.00865 0-0.018652-0.00761-0.022224-0.016939-0.00358-0.00932-0.014279-0.016939-0.023787-0.016939-0.0095 0-0.017289-0.00499-0.017289-0.011081 0-0.00609-0.012701-0.014272-0.028224-0.018171-0.015524-0.0039-0.028224-0.014158-0.028224-0.0228 0-0.00864-0.00532-0.015709-0.011829-0.015709-0.00651 0-0.023601-0.012698-0.037986-0.028223-0.014386-0.015526-0.031926-0.028223-0.038975-0.028223-0.00705 0-0.012818-0.00761-0.012818-0.016939 0-0.00932-0.00762-0.016939-0.016935-0.016939-0.00931 0-0.016935-0.00761-0.016935-0.016939 0-0.00932-0.00762-0.016939-0.016935-0.016939-0.00931 0-0.016935-0.00499-0.016935-0.011081 0-0.00609-0.012701-0.014272-0.028224-0.018171-0.015524-0.0039-0.028224-0.014158-0.028224-0.0228 0-0.00864-0.00762-0.015709-0.016935-0.015709-0.00931 0-0.016935-0.00761-0.016935-0.016939 0-0.00932-0.00762-0.016939-0.016935-0.016939-0.00931 0-0.016935-0.00761-0.016935-0.016939 0-0.00932-0.00762-0.016939-0.016935-0.016939-0.00931 0-0.016935-0.00761-0.016935-0.016939 0-0.00932-0.00545-0.016939-0.012095-0.016939-0.015631 0-0.044351-0.02872-0.044351-0.044351 0-0.00665-0.00762-0.012084-0.016935-0.012084-0.00931 0-0.016935-0.00761-0.016935-0.016939 0-0.00941-0.01004-0.016939-0.022578-0.016939-0.012544 0-0.022581-0.00752-0.022581-0.016939 0-0.0093-0.00547-0.016939-0.012159-0.016939-0.00669 0-0.027399-0.01523-0.046026-0.033869-0.018628-0.018628-0.041098-0.033869-0.049935-0.033869-0.008842 0-0.016066-0.00761-0.016066-0.016939 0-0.00932-0.007623-0.016939-0.016936-0.016939-0.009314 0-0.016936-0.00545-0.016936-0.012084 0-0.01564-0.028722-0.044353-0.044352-0.044353-0.006651 0-0.012095-0.00761-0.012095-0.016939 0-0.00932-0.007622-0.016939-0.016935-0.016939-0.009313 0-0.016935-0.00761-0.016935-0.016939 0-0.00932-0.00762-0.016939-0.016935-0.016939-0.009313 0-0.016935-0.00761-0.016935-0.016939 0-0.00932-0.00762-0.016939-0.016935-0.016939-0.009313 0-0.016935-0.00761-0.016935-0.016939 0-0.00932-0.00762-0.016939-0.016935-0.016939-0.009313 0-0.016935-0.00761-0.016935-0.016939 0-0.00932-0.00762-0.016939-0.016935-0.016939-0.009313 0-0.016935-0.00761-0.016935-0.016939 0-0.0093-0.007071-0.016939-0.015711-0.016939-0.008642 0-0.018898-0.012698-0.022795-0.028226-0.003899-0.015526-0.012068-0.028223-0.018157-0.028223-0.006093 0-0.011076-0.00761-0.011076-0.016939 0-0.0093-0.005079-0.016939-0.01129-0.016939-0.006206 0-0.01129-0.00761-0.01129-0.016939 0-0.0093-0.00762-0.016939-0.016935-0.016939-0.009313 0-0.016935-0.00761-0.016935-0.016939 0-0.00932-0.00762-0.016939-0.016935-0.016939-0.009313 0-0.016935-0.00761-0.016935-0.016939 0-0.00932-0.00762-0.016939-0.016935-0.016939-0.009313 0-0.016935-0.00761-0.016935-0.016939 0-0.00932-0.007071-0.016939-0.015711-0.016939-0.008642 0-0.018898-0.012699-0.022795-0.028223-0.003896-0.015527-0.012068-0.028223-0.018157-0.028223-0.006093 0-0.011074-0.0065-0.011074-0.014433 0-0.016187-0.039398-0.053311-0.056577-0.053311-0.006137 0-0.01116-0.00761-0.01116-0.016939 0-0.0093-0.005079-0.016939-0.01129-0.016939-0.006211 0-0.01129-0.01286-0.01129-0.02858 0-0.015708-0.00762-0.031504-0.016935-0.035077-0.009313-0.00358-0.016935-0.013588-0.016935-0.022229 0-0.00864-0.00762-0.015732-0.016935-0.015732-0.01129 0-0.016935-0.011285-0.016935-0.033869 0-0.021408-0.005782-0.033871-0.015711-0.033871-0.008642 0-0.018898-0.012698-0.022795-0.028223-0.003896-0.015526-0.011664-0.028225-0.017261-0.028225-0.005598 0-0.013525-0.015252-0.017616-0.033869-0.004091-0.018628-0.012116-0.033869-0.017831-0.033869-0.005716 0-0.010393-0.012698-0.010393-0.028225 0-0.017556-0.006397-0.028223-0.016934-0.028223-0.011827 0-0.016934-0.011923-0.016934-0.039512 0-0.027598-0.005107-0.039513-0.016934-0.039513-0.01223 0-0.016934-0.012539-0.016934-0.045158 0-0.032616-0.004703-0.04516-0.016934-0.04516-0.012544 0-0.016934-0.013179-0.016934-0.050801 0-0.027943-0.0044877-0.050806-0.0099742-0.050806-0.0054862 0-0.012137-0.033968-0.014781-0.075487-0.0028485-0.044507-0.010348-0.077368-0.018266-0.080008-0.018607-0.0062031-0.019312-0.51808-7.2016e-4 -0.52428 0.0069966-0.00233 0.015264-0.030697 0.018371-0.063033 0.0031065-0.032337 0.010083-0.058794 0.015503-0.058794 0.0054195 0 0.0098537-0.022861 0.0098537-0.050804 0-0.037632 0.0043905-0.050804 0.016934-0.050804 0.01129 0 0.016934-0.011286 0.016934-0.033868 0-0.022571 0.005646-0.033868 0.016934-0.033868 0.01129 0 0.016934-0.011286 0.016934-0.033868 0-0.022571 0.005646-0.03387 0.016934-0.03387 0.010537 0 0.016934-0.01067 0.016934-0.028223 0-0.017556 0.006397-0.028225 0.016934-0.028225 0.01129 0 0.016934-0.011286 0.016934-0.033868 0-0.022571 0.005646-0.033868 0.016934-0.033868 0.009313 0 0.016935-0.007615 0.016935-0.01694 0-0.009301 0.004737-0.01694 0.010529-0.01694 0.00579 0 0.013908-0.010647 0.018039-0.023663 0.004131-0.013018 0.027335-0.042904 0.051564-0.066416 0.024229-0.023515 0.044053-0.048428 0.044053-0.055363 0-0.006931 0.00762-0.012608 0.016935-0.012608 0.009313 0 0.016935-0.007615 0.016935-0.01694 0-0.009324 0.00762-0.01694 0.016935-0.01694 0.009313 0 0.016935-0.007615 0.016935-0.01694 0-0.009324 0.00762-0.01694 0.016935-0.01694 0.009313 0 0.016935-0.007615 0.016935-0.01694 0-0.009324 0.00762-0.01694 0.016935-0.01694 0.009313 0 0.016935-0.007615 0.016935-0.01694 0-0.010533 0.010663-0.01694 0.028224-0.01694 0.015524 0 0.028224-0.005084 0.028224-0.011286 0-0.0062 0.007779-0.011286 0.017289-0.011286 0.009509 0 0.020214-0.007615 0.023787-0.01694 0.003571-0.009301 0.018656-0.01694 0.033514-0.01694 0.015553 0 0.027016-0.006657 0.027016-0.015709 0-0.008642 0.012702-0.0189 0.028224-0.022799 0.015524-0.003899 0.028224-0.012061 0.028224-0.018148 0-0.006088 0.0098-0.01108 0.021773-0.01108 0.011974 0 0.029393-0.007615 0.038707-0.01694 0.009313-0.009301 0.032538-0.01694 0.05161-0.01694 0.023296 0 0.034675-0.005563 0.034675-0.01694 0-0.01222 0.012544-0.01694 0.045158-0.01694s0.045159-0.004697 0.045159-0.01694c0-0.013178 0.015052-0.01694 0.067737-0.01694 0.052684 0 0.067737-0.003762 0.067737-0.01694 0-0.014523 0.034496-0.01694 0.24273-0.01694 0.20823 0 0.24273 0.0024167 0.24273 0.01694 0 0.013452 0.016305 0.01694 0.079027 0.01694 0.062719 0 0.079027 0.003488 0.079027 0.01694 0 0.01222 0.012544 0.01694 0.045158 0.01694s0.045158 0.004697 0.045158 0.01694c0 0.011286 0.011289 0.01694 0.03387 0.01694s0.03387 0.005655 0.03387 0.01694c0 0.011286 0.01129 0.01694 0.03387 0.01694 0.022581 0 0.03387 0.005655 0.03387 0.01694 0 0.010328 0.010527 0.01694 0.027017 0.01694 0.014858 0 0.029939 0.007615 0.033514 0.01694 0.00358 0.009324 0.017061 0.01694 0.029971 0.01694 0.012909 0 0.035242 0.012699 0.049629 0.028223 0.014386 0.015526 0.031924 0.028223 0.038975 0.028223 0.00705 0 0.012818 0.007615 0.012818 0.01694 0 0.011286 0.011291 0.01694 0.03387 0.01694 0.022578 0 0.03387 0.005655 0.03387 0.01694 0 0.009301 0.00762 0.01694 0.016935 0.01694 0.00931 0 0.016935 0.007615 0.016935 0.01694 0 0.009301 0.00762 0.01694 0.016935 0.01694 0.00931 0 0.016935 0.005677 0.016935 0.012608s0.020321 0.032331 0.045158 0.056435 0.045158 0.048911 0.045158 0.055126c0 0.006224 0.00532 0.011308 0.011829 0.011308 0.00651 0 0.0236 0.012699 0.037986 0.028223 0.014386 0.015526 0.031926 0.028223 0.038975 0.028223 0.00705 0 0.012818 0.007615 0.012818 0.01694 0 0.009417 0.01004 0.01694 0.022581 0.01694 0.012419 0 0.022578-0.005451 0.022578-0.012106 0-0.01564 0.028722-0.044351 0.044352-0.044351 0.00665 0 0.012097-0.007615 0.012097-0.01694 0-0.009301 0.00762-0.01694 0.016935-0.01694 0.00931 0 0.016935-0.007615 0.016935-0.01694 0-0.009301 0.00762-0.01694 0.016935-0.01694 0.00931 0 0.016935-0.007615 0.016935-0.01694 0-0.009301 0.00762-0.01694 0.016935-0.01694 0.00931 0 0.016935-0.007615 0.016935-0.01694 0-0.009324 0.00762-0.01694 0.016935-0.01694 0.00931 0 0.016935-0.007615 0.016935-0.01694 0-0.009324 0.00762-0.01694 0.016935-0.01694 0.00931 0 0.016935-0.007615 0.016935-0.01694 0-0.009324 0.00762-0.01694 0.016935-0.01694 0.00931 0 0.016935-0.007615 0.016935-0.01694 0-0.010533 0.010663-0.01694 0.028224-0.01694 0.017562 0 0.028224-0.006407 0.028224-0.01694 0-0.009324 0.00762-0.01694 0.016935-0.01694 0.00931 0 0.016935-0.004536 0.016935-0.010055 0-0.00554 0.012701-0.013246 0.028224-0.017145 0.015524-0.003899 0.028224-0.012061 0.028224-0.018171 0-0.006088 0.010162-0.01108 0.022581-0.01108 0.012544 0 0.022581-0.007523 0.022581-0.01694 0-0.011286 0.01129-0.01694 0.03387-0.01694 0.022581 0 0.03387-0.005632 0.03387-0.01694 0-0.010533 0.010664-0.01694 0.028224-0.01694 0.017562 0 0.028224-0.006407 0.028224-0.01694 0-0.011286 0.011289-0.01694 0.03387-0.01694s0.03387-0.005655 0.03387-0.01694c0-0.012539 0.013171-0.01694 0.050803-0.01694s0.050804-0.0044 0.050804-0.01694c0-0.013429 0.016308-0.01694 0.079027-0.01694s0.079027-0.003488 0.079027-0.01694c0-0.014477 0.032479-0.01694 0.22458-0.01694 0.18922 0 0.22561 0.0026676 0.23108 0.01694 0.00486 0.012654 0.025106 0.01694 0.080235 0.01694 0.058017 0 0.073737 0.003602 0.073737 0.01694 0 0.01254 0.013171 0.01694 0.050803 0.01694 0.037633 0 0.050804 0.004377 0.050804 0.01694 0 0.011286 0.01129 0.01694 0.03387 0.01694 0.022581 0 0.03387 0.005655 0.03387 0.01694 0 0.011286 0.011291 0.01694 0.03387 0.01694 0.018628 0 0.03387 0.004992 0.03387 0.01108 0 0.006088 0.0127 0.014272 0.028224 0.018148 0.015524 0.003899 0.028224 0.014158 0.028224 0.022799 0 0.009301 0.011719 0.015709 0.028763 0.015709 0.016178 0 0.040207 0.012357 0.054921 0.028223 0.014386 0.015526 0.031924 0.028223 0.038975 0.028223 0.00705 0 0.012817 0.007615 0.012817 0.01694 0 0.010533 0.010663 0.01694 0.028224 0.01694 0.017562 0 0.028224 0.006407 0.028224 0.01694 0 0.009301 0.00762 0.01694 0.016935 0.01694 0.00931 0 0.016935 0.007615 0.016935 0.01694 0 0.009301 0.00762 0.01694 0.016935 0.01694 0.00931 0 0.016935 0.007615 0.016935 0.01694 0 0.009301 0.00762 0.01694 0.016935 0.01694 0.00931 0 0.016935 0.007615 0.016935 0.01694 0 0.009324 0.00762 0.01694 0.016935 0.01694 0.00931 0 0.016935 0.007615 0.016935 0.01694 0 0.009324 0.00762 0.01694 0.016935 0.01694 0.010539 0 0.016935 0.01067 0.016935 0.028225s0.00641 0.028223 0.016935 0.028223c0.00931 0 0.016935 0.007615 0.016935 0.01694 0 0.009324 0.00507 0.01694 0.011291 0.01694 0.00621 0 0.011291 0.007615 0.011291 0.01694 0 0.009324 0.00762 0.01694 0.016935 0.01694 0.011291 0 0.016935 0.011286 0.016935 0.033868 0 0.021408 0.00578 0.033868 0.015711 0.033868 0.00864 0 0.018898 0.012699 0.022795 0.028225 0.0039 0.015526 0.012069 0.028223 0.018156 0.028223 0.0061 0 0.011074 0.015253 0.011074 0.03387 0 0.022571 0.00564 0.033868 0.016935 0.033868 0.011291 0 0.016935 0.011286 0.016935 0.033868 0 0.022571 0.00564 0.033868 0.016935 0.033868 0.012503 0 0.016935 0.013086 0.016935 0.049999 0 0.029388 0.00698 0.056975 0.016935 0.066929 0.011001 0.011012 0.016935 0.038978 0.016935 0.079836 0 0.048383 0.00391 0.062898 0.016935 0.062898 0.014487 0 0.016935 0.03251 0.016935 0.22485 0 0.16388-0.00365 0.22606-0.013442 0.22933-0.00798 0.00267-0.015458 0.036122-0.018395 0.082232-0.00284 0.044637-0.011543 0.084346-0.020426 0.093228-0.0085 0.00849-0.015474 0.037974-0.015474 0.065472 0 0.036917-0.00443 0.049996-0.016935 0.049996-0.01223 0-0.016935 0.012539-0.016935 0.04516 0 0.032613-0.0047 0.045158-0.016935 0.045158-0.011291 0-0.016935 0.011286-0.016935 0.033869 0 0.018628-0.00467 0.033869-0.010392 0.033869-0.00571 0-0.013742 0.015252-0.017831 0.033869-0.00408 0.018628-0.011713 0.033871-0.016935 0.033871-0.00522 0-0.012844 0.015252-0.016935 0.033869-0.00408 0.018627-0.011563 0.033869-0.016607 0.033869-0.00504 0-0.012356 0.0127-0.016253 0.028225-0.0039 0.015527-0.012068 0.028223-0.018157 0.028223-0.0061 0-0.011074 0.010169-0.011074 0.02257 0 0.012539-0.00752 0.02257-0.016935 0.02257-0.010538 0-0.016935 0.010671-0.016935 0.028226s-0.00641 0.028223-0.016935 0.028223c-0.00931 0-0.016935 0.00707-0.016935 0.015732 0 0.00864-0.00762 0.01865-0.016935 0.022229-0.00931 0.00358-0.016935 0.019357-0.016935 0.035077 0 0.015708-0.00502 0.028579-0.01116 0.028579-0.017179 0-0.056576 0.037124-0.056576 0.053311 0 0.00793-0.00474 0.014433-0.010528 0.014433-0.00579 0-0.014006 0.010944-0.018255 0.02434-0.00425 0.013383-0.019832 0.035561-0.03463 0.049275-0.014797 0.013702-0.026903 0.030701-0.026903 0.037752 0 0.00705-0.00762 0.012812-0.016935 0.012812-0.00931 0-0.016935 0.00761-0.016935 0.016939 0 0.00932-0.00762 0.016939-0.016935 0.016939-0.00931 0-0.016935 0.00761-0.016935 0.016939 0 0.00932-0.00762 0.016939-0.016935 0.016939-0.00931 0-0.016935 0.0055-0.016935 0.012198 0 0.00671-0.030483 0.042675-0.067737 0.079931-0.037256 0.037255-0.067737 0.074952-0.067737 0.083769 0 0.00882-0.00762 0.016029-0.016935 0.016029-0.00931 0-0.016935 0.00761-0.016935 0.016939 0 0.00932-0.00507 0.016939-0.011291 0.016939-0.00621 0-0.01129 0.00761-0.01129 0.016939 0 0.0093-0.00762 0.016939-0.016935 0.016939-0.00931 0-0.016935 0.00761-0.016935 0.016939 0 0.00934-0.010009 0.016939-0.022341 0.016939-0.012288 0-0.04984 0.027943-0.083449 0.062094-0.03361 0.03415-0.066739 0.062094-0.07362 0.062094-0.00688 0-0.012512 0.00761-0.012512 0.016939 0 0.00932-0.00762 0.016939-0.016935 0.016939-0.00931 0-0.016935 0.00761-0.016935 0.016939 0 0.00932-0.00762 0.016939-0.016935 0.016939-0.00931 0-0.016935 0.00761-0.016935 0.016939 0 0.00932-0.00762 0.016939-0.016935 0.016939-0.00931 0-0.016935 0.00761-0.016935 0.016939 0 0.00932-0.00568 0.016939-0.012609 0.016939-0.00694 0-0.032332 0.020314-0.056435 0.045158-0.024103 0.024837-0.048911 0.045158-0.055127 0.045158-0.00622 0-0.011302 0.00707-0.011302 0.015709 0 0.00864-0.012701 0.0189-0.028224 0.0228-0.015524 0.0039-0.028224 0.012061-0.028224 0.018149 0 0.00609-0.00762 0.011081-0.016935 0.011081-0.00931 0-0.016935 0.00761-0.016935 0.016939 0 0.00932-0.00762 0.016939-0.016935 0.016939-0.00931 0-0.016935 0.00761-0.016935 0.016939 0 0.0093-0.00762 0.016939-0.016935 0.016939-0.00931 0-0.016935 0.00761-0.016935 0.016939 0 0.0093-0.00576 0.016939-0.012818 0.016939-0.00705 0-0.024587 0.012699-0.038975 0.028223-0.014386 0.015527-0.031088 0.028223-0.037118 0.028223s-0.026201 0.015253-0.044828 0.033871c-0.018628 0.018628-0.03934 0.033869-0.046026 0.033869-0.00669 0-0.012159 0.00761-0.012159 0.016939 0 0.00932-0.00762 0.016939-0.016935 0.016939-0.00931 0-0.016935 0.00761-0.016935 0.016939 0 0.00932-0.00762 0.016939-0.016935 0.016939-0.00931 0-0.016935 0.00761-0.016935 0.016939 0 0.00932-0.00762 0.016939-0.016935 0.016939-0.00931 0-0.016935 0.00761-0.016935 0.016939 0 0.00952-0.010095 0.016939-0.023119 0.016939-0.012715 0-0.034888 0.012698-0.049275 0.028225-0.014386 0.015527-0.030797 0.028223-0.036466 0.028223-0.012977 0-0.049196 0.041654-0.049196 0.056578 0 0.00614-0.00762 0.011171-0.016935 0.011171-0.00931 0-0.016935 0.00761-0.016935 0.016939 0 0.010602-0.010702 0.016939-0.028579 0.016939-0.015717 0-0.031503 0.00761-0.035077 0.016939-0.00358 0.00932-0.013575 0.016939-0.022224 0.016939-0.00865 0-0.015726 0.00761-0.015726 0.016939 0 0.00932-0.00762 0.016939-0.016935 0.016939-0.00931 0-0.016935 0.00761-0.016935 0.016939 0 0.00932-0.00762 0.016939-0.016935 0.016939-0.00931 0-0.016935 0.00761-0.016935 0.016939 0 0.010533-0.010663 0.016939-0.028224 0.016939-0.017562 0-0.028224 0.00641-0.028224 0.016939 0 0.00932-0.00575 0.016939-0.012817 0.016939-0.00705 0-0.024587 0.0127-0.038975 0.028226-0.014387 0.015526-0.03148 0.028223-0.037985 0.028223-0.00651 0-0.011828 0.00761-0.011828 0.016939 0 0.00932-0.00762 0.016939-0.016935 0.016939-0.00931 0-0.016935 0.00761-0.016935 0.016939 0 0.010532-0.010663 0.016939-0.028224 0.016939-0.017562 0-0.028224 0.00641-0.028224 0.016939 0 0.00932-0.00762 0.016939-0.016935 0.016939-0.00931 0-0.016935 0.00761-0.016935 0.016939 0 0.00941-0.01004 0.016939-0.022578 0.016939-0.01242 0-0.022581 0.00545-0.022581 0.012107 0 0.038159-0.077111 0.067235-0.10482 0.039524zm0.048375-0.35644c0-0.00621 0.00762-0.011286 0.016935-0.011286 0.00931 0 0.016935-0.00707 0.016935-0.015708 0-0.00864 0.013713-0.019152 0.030475-0.02336 0.016762-0.00422 0.04192-0.019995 0.055909-0.035093 0.01399-0.015092 0.030758-0.027444 0.037262-0.027444 0.00651 0 0.011828-0.00761 0.011828-0.016939 0-0.00932 0.00762-0.016939 0.016935-0.016939 0.00931 0 0.016935-0.00761 0.016935-0.016939 0-0.00932 0.00762-0.016939 0.016935-0.016939 0.00931 0 0.016935-0.00761 0.016935-0.016939 0-0.010533 0.010664-0.016939 0.028224-0.016939 0.017562 0 0.028224-0.00641 0.028224-0.016939 0-0.00932 0.00762-0.016939 0.016935-0.016939 0.00931 0 0.016935-0.00508 0.016935-0.011286 0-0.00621 0.00762-0.011286 0.016935-0.011286 0.00931 0 0.016935-0.00761 0.016935-0.016939 0-0.00932 0.00762-0.016939 0.016935-0.016939 0.00931 0 0.016935-0.00761 0.016935-0.016939 0-0.0093 0.00762-0.016939 0.016935-0.016939 0.00931 0 0.016935-0.00761 0.016935-0.016939 0-0.010533 0.010663-0.016939 0.028224-0.016939 0.017562 0 0.028224-0.00641 0.028224-0.016939 0-0.0093 0.00762-0.016939 0.016935-0.016939 0.00931 0 0.016935-0.00761 0.016935-0.016939 0-0.00941 0.01004-0.016939 0.022581-0.016939 0.01242 0 0.022581-0.00545 0.022581-0.012107 0-0.00665 0.00726-0.019357 0.016128-0.028223 0.00887-0.00887 0.021571-0.016119 0.028224-0.016119 0.00665 0 0.012097-0.00761 0.012097-0.016939 0-0.00932 0.00767-0.016939 0.017045-0.016939 0.00937 0 0.025744-0.010169 0.036377-0.02257 0.010634-0.012426 0.025825-0.022572 0.033758-0.022572 0.00793 0 0.014426-0.00508 0.014426-0.011286 0-0.00621 0.00762-0.011286 0.016935-0.011286 0.00931 0 0.016935-0.00761 0.016935-0.016939 0-0.00932 0.00762-0.016939 0.016935-0.016939 0.00931 0 0.016935-0.00533 0.016935-0.011833 0-0.0065 0.012703-0.0236 0.028224-0.037986 0.015524-0.014386 0.028224-0.031925 0.028224-0.038975s0.012157-0.012812 0.027017-0.012812c0.014858 0 0.02994-0.00761 0.033515-0.016939 0.00358-0.0093 0.014279-0.016939 0.023787-0.016939 0.0095 0 0.017288-0.00761 0.017288-0.016939 0-0.0093 0.00762-0.016939 0.016935-0.016939 0.00931 0 0.016935-0.00508 0.016935-0.011286 0-0.00621 0.00762-0.011286 0.016935-0.011286 0.00931 0 0.016935-0.00761 0.016935-0.016939 0-0.0093 0.00762-0.016939 0.016935-0.016939 0.00931 0 0.016935-0.00761 0.016935-0.016939 0-0.0093 0.00762-0.016939 0.016935-0.016939 0.00931 0 0.016935-0.0053 0.016935-0.011833 0-0.0065 0.0127-0.023601 0.028224-0.037985 0.015524-0.014386 0.028224-0.031926 0.028224-0.038976s0.00762-0.012812 0.016935-0.012812c0.00931 0 0.016935-0.00508 0.016935-0.011286 0-0.00621 0.00722-0.011285 0.016044-0.011285 0.00882 0 0.038905-0.022861 0.066847-0.050804 0.027941-0.027943 0.056285-0.050804 0.062983-0.050804 0.0067 0 0.012181-0.00761 0.012181-0.016939 0-0.0093 0.0065-0.016939 0.014426-0.016939 0.016187 0 0.053311-0.0394 0.053311-0.056577 0-0.00614 0.00762-0.011171 0.016935-0.011171 0.00931 0 0.016935-0.00761 0.016935-0.016939 0-0.0093 0.00762-0.016939 0.016935-0.016939 0.00931 0 0.016935-0.00761 0.016935-0.016939 0-0.0093 0.00533-0.016939 0.011849-0.016939 0.013713 0 0.089757-0.071427 0.089757-0.08431 0-0.00476 0.020321-0.028369 0.045158-0.052474 0.024837-0.024104 0.045158-0.053991 0.045158-0.066416 0-0.012562 0.00752-0.022594 0.016935-0.022594 0.00931 0 0.016935-0.00761 0.016935-0.016939 0-0.00932 0.00762-0.016939 0.016935-0.016939 0.00931 0 0.016935-0.00508 0.016935-0.011286 0-0.00621 0.00762-0.011286 0.016935-0.011286 0.00931 0 0.016935-0.00761 0.016935-0.016939 0-0.00932 0.00762-0.016939 0.016935-0.016939 0.0094 0 0.016935-0.010029 0.016935-0.02257 0-0.012426 0.00498-0.02257 0.011074-0.02257 0.0061 0 0.014263-0.012698 0.01816-0.028223 0.0039-0.015526 0.014153-0.028226 0.022795-0.028226 0.00864 0 0.015711-0.00761 0.015711-0.016939 0-0.00932 0.00762-0.016939 0.016935-0.016939 0.00931 0 0.016935-0.00761 0.016935-0.016939 0-0.00932 0.00453-0.016939 0.01007-0.016939s0.013253-0.012699 0.01715-0.028226c0.0039-0.015527 0.012068-0.028223 0.018157-0.028223 0.0061 0 0.011076-0.015252 0.011076-0.033871 0-0.02257 0.00564-0.033869 0.016935-0.033869 0.0094 0 0.016935-0.010029 0.016935-0.02257 0-0.012539 0.00752-0.02257 0.016935-0.02257 0.010334 0 0.016935-0.010533 0.016935-0.027015 0-0.014865 0.00762-0.029941 0.016935-0.033515 0.00931-0.00358 0.016935-0.01719 0.016935-0.030239 0-0.013063 0.00762-0.031359 0.016935-0.040675 0.00931-0.0093 0.016935-0.031269 0.016935-0.048788 0-0.017897 0.00743-0.034701 0.016935-0.038352 0.011097-0.00426 0.016935-0.021863 0.016935-0.051071 0-0.024516 0.00605-0.046588 0.013442-0.049052 8e-3 -0.00267 0.015425-0.036204 0.018339-0.082791 0.00269-0.04307 0.010615-0.081937 0.017603-0.086365 0.017519-0.011103 0.017676-0.36778 1.708e-4 -0.37902-0.0069-0.00442-0.015144-0.035784-0.018326-0.069671-0.00318-0.033888-0.011509-0.063523-0.018503-0.065855-7e-3 -0.00233-0.012722-0.018695-0.012722-0.036362 0-0.017669-0.00762-0.039744-0.016935-0.049057-0.00931-0.009324-0.016935-0.029997-0.016935-0.045965 0-0.018285-0.00628-0.02903-0.016935-0.02903-0.011291 0-0.016935-0.011286-0.016935-0.033868 0-0.022571-0.00564-0.033868-0.016935-0.033868-0.00931 0-0.016935-0.007615-0.016935-0.01694 0-0.009324-0.00762-0.01694-0.016935-0.01694-0.010592 0-0.016935-0.010693-0.016935-0.028579 0-0.015709-0.00762-0.031504-0.016935-0.035076-0.00931-0.003577-0.016935-0.011445-0.016935-0.017464 0-0.015002-0.096847-0.1108-0.11201-0.1108-0.0067 0-0.012181-0.007615-0.012181-0.01694 0-0.009301-0.00708-0.01694-0.015726-0.01694-0.00865 0-0.018653-0.007615-0.022224-0.01694-0.00358-0.009324-0.019359-0.01694-0.035077-0.01694-0.017878 0-0.028579-0.006339-0.028579-0.01694 0-0.009324-0.00762-0.01694-0.016935-0.01694-0.00931 0-0.016935-0.004673-0.016935-0.010396 0-0.005723-0.015241-0.013748-0.03387-0.017829-0.018627-0.004082-0.03387-0.012015-0.03387-0.017624 0-0.005609-0.013922-0.01368-0.030935-0.017943-0.017015-0.004264-0.037698-0.014523-0.045965-0.022799-0.00827-0.008277-0.029484-0.015025-0.047152-0.015025-0.017666 0-0.034107-0.00595-0.036534-0.013246-0.00251-0.007523-0.035815-0.015458-0.077146-0.018399-0.040004-0.00285-0.076363-0.010852-0.080801-0.017806-0.011969-0.018786-0.31588-0.017418-0.32216 0.001367-0.00306 0.009166-0.028091 0.014113-0.071497 0.014113-0.051848 0-0.066797 0.003785-0.066797 0.01694 0 0.012539-0.013171 0.01694-0.050804 0.01694-0.037632 0-0.050803 0.004401-0.050803 0.01694 0 0.011286-0.01129 0.01694-0.03387 0.01694-0.022581 0-0.03387 0.005632-0.03387 0.01694 0 0.010602-0.010702 0.01694-0.028579 0.01694-0.015717 0-0.031503 0.007615-0.035077 0.01694-0.00358 0.009301-0.018657 0.01694-0.033514 0.01694-0.016488 0-0.027017 0.006588-0.027017 0.01694 0 0.009301-0.00762 0.01694-0.016935 0.01694-0.00931 0-0.016935 0.007615-0.016935 0.01694 0 0.010533-0.010663 0.01694-0.028224 0.01694-0.017562 0-0.028224 0.006407-0.028224 0.01694 0 0.009324-0.00803 0.01694-0.017838 0.01694-0.01989 0-0.15151 0.12671-0.15151 0.14586 0 0.006703-0.00762 0.012198-0.016935 0.012198-0.00931 0-0.016935 0.007615-0.016935 0.01694 0 0.009324-0.00762 0.01694-0.016935 0.01694-0.00931 0-0.016935 0.007615-0.016935 0.01694 0 0.009302-0.00762 0.01694-0.016935 0.01694-0.00931 0-0.016935 0.007615-0.016935 0.01694 0 0.009302-0.00502 0.01694-0.01116 0.01694-0.022068 0-0.056577 0.039404-0.056577 0.064601 0 0.015321-0.00684 0.025715-0.016935 0.025715-0.00931 0-0.016935 0.00531-0.016935 0.011833 0 0.006495-0.012703 0.0236-0.028224 0.037986-0.015524 0.014386-0.028224 0.031925-0.028224 0.038975s-0.00762 0.012812-0.016935 0.012812c-0.00931 0-0.016935 0.00761-0.016935 0.016939 0 0.00932-0.00507 0.016939-0.01129 0.016939-0.00621 0-0.01129-0.00761-0.01129-0.016939 0-0.0093-0.00762-0.016939-0.016935-0.016939-0.00931 0-0.016935-0.00761-0.016935-0.016939 0-0.0093-0.00762-0.016939-0.016935-0.016939-0.00931 0-0.016935-0.00761-0.016935-0.01694 0-0.0093-0.00762-0.01694-0.016935-0.01694-0.00931 0-0.016935-0.00761-0.016935-0.01694 0-0.009324-0.00762-0.01694-0.016935-0.01694-0.010095 0-0.016935-0.010396-0.016935-0.025715 0-0.025198-0.034509-0.064601-0.056576-0.064601-0.00614 0-0.01116-0.007615-0.01116-0.01694 0-0.009324-0.00507-0.01694-0.011289-0.01694-0.00621 0-0.011291-0.007615-0.011291-0.01694 0-0.009324-0.00762-0.01694-0.016935-0.01694-0.00931 0-0.016935-0.007615-0.016935-0.01694 0-0.009302-0.00762-0.01694-0.016935-0.01694-0.00931 0-0.016935-0.007615-0.016935-0.01694 0-0.009302-0.00762-0.01694-0.016935-0.01694-0.00931 0-0.016935-0.007615-0.016935-0.01694 0-0.009302-0.00762-0.01694-0.016935-0.01694-0.00931 0-0.016935-0.007615-0.016935-0.01694 0-0.009324-0.00532-0.01694-0.011829-0.01694-0.00651 0-0.0236-0.012699-0.037985-0.028223-0.014386-0.015526-0.031381-0.028225-0.037767-0.028225-0.00639 0-0.014534-0.007615-0.018106-0.01694-0.00358-0.009324-0.016819-0.01694-0.029431-0.01694-0.01286 0-0.022934-0.007432-0.022934-0.01694 0-0.009324-0.00762-0.01694-0.016935-0.01694-0.00931 0-0.016935-0.007615-0.016935-0.01694 0-0.011286-0.01129-0.01694-0.03387-0.01694-0.022581 0-0.03387-0.005655-0.03387-0.01694 0-0.011286-0.01129-0.01694-0.03387-0.01694-0.022581 0-0.03387-0.005655-0.03387-0.01694 0-0.011286-0.011289-0.01694-0.03387-0.01694s-0.03387-0.005655-0.03387-0.01694c0-0.012243-0.012544-0.01694-0.045158-0.01694s-0.045158-0.004697-0.045158-0.01694c0-0.013543-0.01683-0.01694-0.08373-0.01694-0.056949 0-0.085236-0.004515-0.088435-0.014113-0.00671-0.020132-0.28118-0.020132-0.28788 0-0.00305 0.009143-0.027937 0.014113-0.070695 0.014113-0.039856 0-0.071937 0.00595-0.081005 0.015025-0.00826 0.008254-0.034881 0.018239-0.059163 0.022184-0.024282 0.003944-0.04715 0.012015-0.05082 0.017966-0.003666 0.005929-0.020592 0.014295-0.037605 0.018558-0.017013 0.004263-0.030933 0.011742-0.030933 0.016598 0 0.004857-0.012702 0.012038-0.028224 0.015937-0.015524 0.003899-0.028224 0.012061-0.028224 0.018171 0 0.006088-0.010162 0.01108-0.02258 0.01108-0.012419 0-0.02258 0.007069-0.02258 0.015709 0 0.008642-0.012702 0.0189-0.028224 0.022799-0.015524 0.003899-0.028224 0.012061-0.028224 0.018148 0 0.006088-0.010162 0.01108-0.02258 0.01108-0.012419 0-0.02258 0.005449-0.02258 0.012084 0 0.01564-0.028722 0.044353-0.044352 0.044353-0.006651 0-0.012095 0.007615-0.012095 0.01694 0 0.009324-0.00762 0.01694-0.016935 0.01694-0.009313 0-0.016935 0.007615-0.016935 0.01694 0 0.009324-0.00762 0.01694-0.016935 0.01694-0.009408 0-0.016935 0.010032-0.016935 0.022571 0 0.012425-0.004983 0.022571-0.011074 0.022571-0.006093 0-0.014263 0.012699-0.018157 0.028226-0.003896 0.015526-0.014154 0.028223-0.022795 0.028223-0.008642 0-0.015711 0.007615-0.015711 0.01694 0 0.009302-0.004676 0.01694-0.010392 0.01694-0.005716 0-0.013741 0.015253-0.017831 0.03387-0.00409 0.018627-0.011712 0.033868-0.016935 0.033868-0.005224 0-0.012843 0.015253-0.016935 0.033868-0.004092 0.018627-0.012116 0.03387-0.017831 0.03387-0.005716 0-0.010392 0.019766-0.010392 0.043949 0 0.028651-0.005893 0.046212-0.016935 0.050447-0.012622 0.00485-0.016935 0.024971-0.016935 0.079029 0 0.054056-0.004314 0.074184-0.016935 0.079027-0.025115 0.00965-0.025115 0.32088 0 0.33052 0.013073 0.00501 0.016935 0.026814 0.016935 0.095605 0 0.071683 0.003313 0.08911 0.016935 0.08911 0.012544 0 0.016935 0.013179 0.016935 0.050804 0 0.02794 0.005079 0.050801 0.01129 0.050801 0.006208 0 0.01129 0.015389 0.01129 0.034223 0 0.019995 0.007035 0.036924 0.016935 0.040723 0.009313 0.00358 0.016935 0.018285 0.016935 0.032708 0 0.014409 0.006765 0.032974 0.015029 0.041242 0.008268 0.00828 0.018524 0.028951 0.022795 0.045965 0.00427 0.017009 0.012747 0.030934 0.018839 0.030934 0.006093 0 0.011074 0.010169 0.011074 0.02257 0 0.012539 0.007526 0.02257 0.016935 0.02257 0.010095 0 0.016935 0.010374 0.016935 0.025714 0 0.025198 0.03451 0.064601 0.056577 0.064601 0.006136 0 0.01116 0.015253 0.01116 0.033869 0 0.02257 0.005644 0.033871 0.016935 0.033871 0.009313 0 0.016935 0.00761 0.016935 0.016939 0 0.0093 0.004982 0.016939 0.011074 0.016939 0.006093 0 0.014263 0.0127 0.01816 0.028223 0.003899 0.015527 0.011614 0.028226 0.01715 0.028226 0.005534 0 0.010066 0.00583 0.010066 0.012973 0 0.01605 0.073508 0.088637 0.089757 0.088637 0.006516 0 0.011849 0.00761 0.011849 0.016939 0 0.00932 0.00762 0.016939 0.016935 0.016939 0.009313 0 0.016935 0.00761 0.016935 0.016939 0 0.00932 0.00707 0.016939 0.015711 0.016939 0.008642 0 0.018898 0.012699 0.022795 0.028226 0.003899 0.015526 0.012068 0.028223 0.018157 0.028223 0.006093 0 0.011074 0.00761 0.011074 0.016939 0 0.0093 0.00762 0.016939 0.016935 0.016939 0.009314 0 0.016936 0.00801 0.016936 0.017807 0 0.02004 0.05946 0.083803 0.078159 0.083803 0.00669 0 0.012159 0.00761 0.012159 0.016939 0 0.00932 0.00762 0.016939 0.016935 0.016939 0.00931 0 0.016935 0.00761 0.016935 0.016939 0 0.00932 0.00762 0.016939 0.016935 0.016939 0.00931 0 0.016935 0.00761 0.016935 0.016939 0 0.00932 0.00762 0.016939 0.016935 0.016939 0.00931 0 0.016935 0.00761 0.016935 0.016939 0 0.00932 0.00762 0.016939 0.016935 0.016939 0.00931 0 0.016935 0.00508 0.016935 0.011286 0 0.00621 0.00762 0.011286 0.016935 0.011286 0.00931 0 0.016935 0.00533 0.016935 0.011833 0 0.014045 0.055307 0.067197 0.069926 0.067197 0.0056 0 0.02195 0.0127 0.036337 0.028226 0.014386 0.015527 0.031925 0.028223 0.038975 0.028223s0.012818 0.00761 0.012818 0.016939c0 0.0093 0.00762 0.016939 0.016935 0.016939 0.00931 0 0.016935 0.00761 0.016935 0.016939 0 0.0093 0.00762 0.016939 0.016935 0.016939 0.00931 0 0.016935 0.00761 0.016935 0.016939 0 0.00932 0.00762 0.016939 0.016935 0.016939 0.00931 0 0.016935 0.00501 0.016935 0.011148 0 0.014523 0.036068 0.056577 0.048536 0.056577 0.0053 0 0.02489 0.01523 0.043518 0.033869 0.018628 0.018627 0.041099 0.033869 0.049935 0.033869 0.00884 0 0.016066 0.00508 0.016066 0.011286 0 0.00621 0.00762 0.011286 0.016935 0.011286 0.00931 0 0.016935 0.00761 0.016935 0.016939 0 0.00932 0.00762 0.016939 0.016935 0.016939 0.00931 0 0.016935 0.00761 0.016935 0.016939 0 0.00932 0.00762 0.016939 0.016935 0.016939 0.00931 0 0.016935 0.00761 0.016935 0.016939 0 0.00932 0.00762 0.016939 0.016935 0.016939 0.00931 0 0.016935 0.00761 0.016935 0.016939 0 0.00932 0.00762 0.016939 0.016935 0.016939 0.00931 0 0.016935 0.00499 0.016935 0.011081 0 0.00609 0.012701 0.014272 0.028224 0.018171 0.015524 0.0039 0.028224 0.014158 0.028224 0.0228 0 0.00864 0.00532 0.015708 0.011829 0.015708 0.00651 0 0.0236 0.012699 0.037986 0.028225 0.014386 0.015527 0.031925 0.028223 0.038975 0.028223s0.012818 0.00761 0.012818 0.016939c0 0.0093 0.00762 0.016939 0.016935 0.016939 0.00931 0 0.016935 0.00761 0.016935 0.016939 0 0.0093 0.00762 0.016939 0.016935 0.016939 0.00931 0 0.016935 0.00499 0.016935 0.011081 0 0.00609 0.012702 0.014272 0.028224 0.018148 0.015524 0.0039 0.028224 0.014158 0.028224 0.0228 0 0.00864 0.00762 0.015709 0.016935 0.015709 0.00931 0 0.016935 0.00761 0.016935 0.016939 0 0.00932 0.00762 0.016939 0.016935 0.016939 0.00931 0 0.016935 0.00761 0.016935 0.016939 0 0.00932 0.00762 0.016939 0.016935 0.016939 0.00931 0 0.016935 0.00508 0.016935 0.011286 0 0.00621 0.00762 0.011286 0.016935 0.011286 0.00931 0 0.016935 0.00761 0.016935 0.016939 0 0.011285 0.011291 0.016939 0.03387 0.016939 0.022577 0 0.03387 0.00566 0.03387 0.016939 0 0.0093 0.00762 0.016939 0.016935 0.016939 0.00931 0 0.016935 0.00501 0.016935 0.011171 0 0.01719 0.037125 0.056578 0.053311 0.056578 0.00793 0 0.014426 0.00761 0.014426 0.016939 0 0.00932 0.00762 0.016939 0.016935 0.016939 0.00931 0 0.016935 0.00499 0.016935 0.011081 0 0.00609 0.012702 0.014272 0.028224 0.018171 0.015524 0.0039 0.028224 0.014158 0.028224 0.0228 0 0.00864 0.00762 0.015709 0.016935 0.015709 0.00931 0 0.016935 0.00508 0.016935 0.011286 0 0.00621 0.00762 0.011285 0.016935 0.011285 0.00931 0 0.016935-0.00508 0.016935-0.011285z" stroke-width=".042669"/>
</svg>
