<svg fill="current" width="19" height="19" version="1.1" viewBox="0 0 5.0271 5.0271" xml:space="preserve" xmlns="http://www.w3.org/2000/svg"><path d="m2.585 5.0104c-0.017572-0.057918-0.17104-0.76961-0.16686-0.77379 0.00282-0.00282 0.086391-0.00542 0.18572-0.00578 0.16707-6.025e-4 0.1806 6.571e-4 0.1806 0.016797 0 0.02244-0.16351 0.75777-0.17131 0.77038-0.00915 0.014806-0.022444 0.011217-0.028153-0.00761zm-1.7564-0.72631c0-0.011603 0.41762-0.67165 0.42968-0.6791 0.00817-0.00505 0.26466 0.24558 0.26466 0.25861 0 0.010495-0.6635 0.43046-0.68008 0.43046-0.007843 0-0.014261-0.00448-0.014261-0.00997zm1.55-0.38601c-0.30955-0.054782-0.56059-0.18785-0.7779-0.41235-0.18742-0.19362-0.30298-0.41163-0.36371-0.68613-0.030186-0.13643-0.030186-0.41479 0-0.55122 0.064414-0.29114 0.18-0.50229 0.38723-0.70736 0.20406-0.20194 0.41318-0.31712 0.68593-0.37781 0.11355-0.025267 0.36223-0.035021 0.47581-0.018664 0.10363 0.014924 0.24462 0.049742 0.24092 0.059498-0.00156 0.0041-0.040235 0.035023-0.085953 0.068714-0.28938 0.21326-0.50513 0.55497-0.58765 0.93076-0.025826 0.1176-0.035759 0.37938-0.019346 0.50977 0.033819 0.26868 0.14687 0.54242 0.31219 0.75594 0.08253 0.10659 0.23735 0.25612 0.33199 0.32065 0.055153 0.037607 0.067584 0.050229 0.05591 0.056762-0.00826 0.00462-0.062285 0.019521-0.12006 0.033112-0.13284 0.031246-0.40893 0.040695-0.53534 0.018322zm1.3089 0.00352c-0.44978-0.064664-0.85043-0.35608-1.0537-0.7664-0.10477-0.21152-0.13791-0.35956-0.13791-0.6161 0-0.20916 0.012553-0.29089 0.0706-0.45963 0.15044-0.43733 0.52194-0.78019 0.96908-0.89435 0.12219-0.031198 0.13997-0.012314 0.081519 0.086556-0.090138 0.15247-0.14096 0.28075-0.17906 0.45201-0.030254 0.13599-0.032679 0.41755-0.00471 0.54648 0.11227 0.51747 0.46122 0.91036 0.94511 1.0641 0.13795 0.043834 0.24264 0.061355 0.40382 0.067582 0.12291 0.00474 0.14602 0.00811 0.15363 0.022326 0.012821 0.02396-0.029879 0.078213-0.127 0.16136-0.20916 0.17906-0.44554 0.29001-0.70888 0.33272-0.096108 0.01559-0.31499 0.017358-0.41253 0.00334zm0.19698-1.1009c-0.14529-0.16954-0.23788-0.35503-0.28459-0.57009-0.022068-0.10161-0.025245-0.37283-0.0054383-0.46452 0.020017-0.092673 0.040696-0.16141 0.04838-0.16081 0.024149 0.00186 0.15439 0.19657 0.21223 0.31728 0.092668 0.19338 0.13459 0.38076 0.13454 0.60143-2.7e-5 0.13349-0.022229 0.31486-0.041055 0.33538-0.00392 0.00427-0.032751-0.022131-0.064068-0.058677zm-3.408-0.17779c-0.28286-0.063665-0.37651-0.088262-0.37651-0.098887 0-0.010636 0.094549-0.035299 0.3814-0.099483 0.20977-0.046937 0.38894-0.085569 0.39815-0.08585 0.015252-4.654e-4 0.016756 0.016173 0.016756 0.1853 0 0.18558-2.632e-5 0.18581-0.021647 0.18474-0.011906-6.024e-4 -0.19107-0.039208-0.39815-0.085816zm0.75493-1.2162c-0.069026-0.10115-0.40287-0.63383-0.40287-0.64281 0-0.00548 0.006417-0.009968 0.014261-0.009968 0.016581 0 0.68008 0.41996 0.68008 0.43046 0 0.00668-0.2534 0.26388-0.25998 0.26388-0.00173 0-0.01589-0.018703-0.03149-0.041562zm1.1855-0.59532c-0.00492-0.007969 0.16681-0.7793 0.17543-0.78792 0.00362-0.003617 0.010857-0.0022999 0.01609 0.0029379 0.00977 0.0097703 0.17597 0.73966 0.17597 0.7728 0 0.017394-0.010214 0.018423-0.18185 0.01836-0.10002-3.696e-5 -0.18355-0.002818-0.18563-0.006185z" stroke-width=".036962"/></svg>
