<svg fill="current" width="19" height="19" version="1.1" viewBox="0 0 5.0271 5.0271" xml:space="preserve" xmlns="http://www.w3.org/2000/svg"><path d="m2.4574 4.9729c-0.01635-0.017461-0.029727-0.037905-0.029727-0.045432 0-0.00752-0.00594-0.013685-0.013211-0.013685-0.00844 0-0.013211-0.1123-0.013211-0.31048 0-0.19818 0.00477-0.31047 0.013211-0.31047 0.00727 0 0.013211-0.00934 0.013211-0.020762 0-0.011419 0.00849-0.029255 0.018874-0.039634 0.010378-0.010378 0.030838-0.018872 0.045462-0.018872 0.014622 0 0.029936-0.00542 0.03403-0.01204 0.00435-0.00703 0.025267-0.00566 0.050323 0.00331 0.023584 0.00844 0.050312 0.022351 0.059395 0.030917 0.00908 0.00856 0.016515 0.02194 0.016515 0.029725 0 0.00778 0.00594 0.014156 0.013211 0.014156 0.00845 0 0.013213 0.1167 0.013213 0.32369 0 0.20698-0.00476 0.32369-0.013213 0.32369-0.00727 0-0.013258 0.010401-0.013314 0.023119-4.98e-5 0.012714-0.016105 0.030552-0.035663 0.039634-0.019559 0.00908-0.056669 0.016152-0.08247 0.015706-0.031758-5.517e-4 -0.056512-0.011057-0.076636-0.032558zm1.7274-0.62722c0-0.00727-0.01189-0.01321-0.026424-0.01321-0.014532 0-0.026424-0.00594-0.026424-0.013214 0-0.00727-0.00604-0.01321-0.013424-0.01321-0.00738 0-0.058536-0.043971-0.11367-0.097713-0.055137-0.053743-0.10619-0.10366-0.11346-0.11092-0.00727-0.00727-0.057183-0.058324-0.11092-0.11346-0.053743-0.055138-0.097713-0.10629-0.097713-0.11367 0-0.00738-0.00594-0.013427-0.013211-0.013427-0.00727 0-0.013213-0.02378-0.013213-0.052847 0-0.029066 0.00594-0.052847 0.013213-0.052847 0.00727 0 0.013211-0.00636 0.013211-0.014155 0-0.00778 0.00849-0.022649 0.018874-0.03303 0.010752-0.010752 0.044402-0.018874 0.078216-0.018874 0.059272 0 0.059617 2.996e-4 0.2916 0.23257 0.12774 0.12791 0.23226 0.24087 0.23226 0.25102 0 0.010155 0.00594 0.018453 0.01321 0.018453s0.01321 0.014862 0.01321 0.033031c0 0.018164-0.00594 0.033032-0.01321 0.033032s-0.01321 0.00934-0.01321 0.020762c0 0.011419-0.00849 0.029255-0.018872 0.039634-0.010378 0.010378-0.028218 0.018876-0.039635 0.018876-0.011419 0-0.020761 0.00594-0.020761 0.01321s-0.00892 0.01321-0.019818 0.01321c-0.010904 0-0.019817-0.00594-0.019817-0.01321zm-3.3486-0.030506c-0.014226-0.00866-0.033548-0.022746-0.042938-0.031311-0.00939-0.00856-0.017073-0.024916-0.017073-0.036332 0-0.011419-0.005945-0.020762-0.013212-0.020762-0.007267 0-0.013212-0.00892-0.013212-0.019817 0-0.010904 0.005945-0.019817 0.013212-0.019817 0.007267 0 0.013212-0.011904 0.013212-0.026458 0-0.014901 0.037502-0.064144 0.085876-0.11276 0.047232-0.047465 0.085876-0.09204 0.085876-0.099055 0-0.00701 0.007473-0.012753 0.016606-0.012753 0.009134 0 0.034852-0.019321 0.057154-0.042938 0.022302-0.023615 0.07874-0.07868 0.12542-0.12236 0.04668-0.04368 0.10219-0.088269 0.12337-0.099083 0.029844-0.015242 0.039741-0.01595 0.044039-0.00315 0.00305 0.00908 0.014392 0.016514 0.025205 0.016514 0.010811 0 0.026667 0.00766 0.035232 0.017026 0.00856 0.00936 0.023003 0.030092 0.032085 0.046062 0.00908 0.01597 0.016514 0.041009 0.016514 0.055639 0 0.014629-0.00594 0.026603-0.013211 0.026603-0.00727 0-0.013211 0.00628-0.013211 0.01396s-0.044441 0.059698-0.09876 0.1156c-0.054317 0.055905-0.11103 0.11353-0.12604 0.12807-0.015003 0.014532-0.071629 0.070256-0.12584 0.12383-0.054209 0.053573-0.098562 0.10262-0.098562 0.109 0 0.00638-0.019322 0.011243-0.042938 0.010811-0.023616-4.663e-4 -0.054577-0.00786-0.068804-0.016515zm1.5386-0.69614c0-0.00727-0.026754-0.013213-0.059452-0.013213-0.0327 0-0.059453-0.00594-0.059453-0.013211 0-0.00727-0.017485-0.013211-0.038855-0.013211-0.021371 0-0.04253-0.00594-0.047021-0.013213-0.00449-0.00727-0.022678-0.013211-0.040414-0.013211-0.017737 0-0.032249-0.00594-0.032249-0.013211 0-0.00727-0.010401-0.013344-0.02312-0.013506-0.012717-1.494e-4 -0.037985-0.01192-0.05615-0.026129-0.018166-0.014209-0.040461-0.025968-0.049544-0.02613-0.00908-1.498e-4 -0.016514-0.00624-0.016514-0.013505 0-0.00727-0.00892-0.013213-0.019817-0.013213-0.010904 0-0.019818-0.0046-0.019818-0.010202 0-0.00562-0.02224-0.021963-0.049422-0.036333-0.027181-0.014368-0.080689-0.057208-0.11891-0.095199-0.038216-0.03799-0.069484-0.073101-0.069484-0.078023 0-0.00493-0.014863-0.028435-0.033028-0.052252-0.018168-0.023818-0.033031-0.046922-0.033031-0.051344 0-0.00442-0.011891-0.020802-0.026424-0.036401-0.014532-0.015599-0.026424-0.036159-0.026424-0.045689 0-0.00952-0.00594-0.017326-0.013211-0.017326-0.00727 0-0.013211-0.011536-0.013211-0.025644 0-0.014104-0.00594-0.029317-0.013213-0.033809-0.00727-0.00449-0.013211-0.019705-0.013211-0.033809s-0.00594-0.025644-0.013211-0.025644c-0.00727 0-0.013213-0.017836-0.013213-0.039635 0-0.0218-0.00594-0.039635-0.013211-0.039635-0.00727 0-0.013211-0.026754-0.013211-0.059452s-0.00594-0.059452-0.013211-0.059452c-0.00815 0-0.013211-0.068261-0.013211-0.17836 0-0.1101 0.00505-0.17836 0.013211-0.17836 0.00727 0 0.013211-0.026754 0.013211-0.059452s0.00594-0.059452 0.013211-0.059452c0.00727 0 0.013211-0.017836 0.013211-0.039635 0-0.0218 0.00594-0.039635 0.013213-0.039635 0.00727 0 0.013211-0.014863 0.013211-0.03303 0-0.018166 0.00594-0.03303 0.013211-0.03303 0.00727 0 0.013213-0.011891 0.013213-0.026424 0-0.014532 0.00594-0.026423 0.013211-0.026423 0.00727 0 0.013211-0.011891 0.013211-0.026424 0-0.014532 0.00523-0.026424 0.011606-0.026424 0.00639 0 0.018996-0.017835 0.028026-0.039635 0.00903-0.021799 0.021241-0.039635 0.027135-0.039635 0.0059 0 0.014399-0.011594 0.018896-0.025766 0.0045-0.014172 0.052056-0.070653 0.10568-0.12551 0.053627-0.054859 0.10448-0.099744 0.11301-0.099744 0.00853 0 0.034203-0.014952 0.057052-0.033228 0.022849-0.018275 0.048723-0.039084 0.0575-0.046241 0.00877-0.00716 0.025125-0.013012 0.036332-0.013012 0.011208 0 0.020375-0.00594 0.020375-0.013213 0-0.00727 0.011536-0.013211 0.025645-0.013211 0.014104 0 0.029317-0.00594 0.033809-0.013211 0.00449-0.00727 0.019705-0.013213 0.033809-0.013213s0.025644-0.00594 0.025644-0.013211c0-0.00727 0.020808-0.013211 0.046241-0.013211 0.025432 0 0.046241-0.00594 0.046241-0.013212 0-0.00727 0.029727-0.013211 0.066058-0.013211 0.036332 0 0.066059-0.00594 0.066059-0.013211 0-0.00804 0.059454-0.013213 0.15193-0.013213 0.092482 0 0.15193 0.00517 0.15193 0.013213 0 0.00727 0.026754 0.013211 0.059452 0.013211 0.0327 0 0.059454 0.00594 0.059454 0.013211 0 0.00727 0.017485 0.013212 0.038855 0.013212 0.021371 0 0.04253 0.00594 0.047021 0.013211 0.00449 0.00727 0.022678 0.013211 0.040415 0.013211 0.017738 0 0.03225 0.00483 0.03225 0.01074s0.020808 0.01891 0.046241 0.028889c0.025432 0.00998 0.046241 0.022979 0.046241 0.028889s0.011891 0.01074 0.026424 0.01074c0.014532 0 0.026423 0.0046 0.026423 0.010202 0 0.00562 0.020808 0.021413 0.046241 0.03511s0.046241 0.029912 0.046241 0.036034c0 0.00612 0.00636 0.011127 0.014156 0.011127 0.00778 0 0.021667 0.00743 0.030848 0.016515 0.00918 0.00908 0.032537 0.02833 0.051903 0.042771 0.019365 0.014442 0.03521 0.03245 0.03521 0.040021 0 0.00757 0.01189 0.022335 0.026424 0.03281 0.014532 0.010471 0.026423 0.02665 0.026423 0.035946 0 0.00929 0.00501 0.0169 0.011126 0.0169 0.00612 0 0.022337 0.020808 0.036034 0.046241 0.013697 0.025432 0.029496 0.046241 0.03511 0.046241 0.00562 0 0.010202 0.011891 0.010202 0.026423 0 0.014533 0.00483 0.026424 0.01074 0.026424s0.018909 0.020808 0.028889 0.046241c0.00998 0.025432 0.022979 0.046241 0.028889 0.046241s0.01074 0.017836 0.01074 0.039635c0 0.0218 0.00594 0.039635 0.013211 0.039635 0.00727 0 0.013211 0.017836 0.013211 0.039635 0 0.0218 0.00594 0.039635 0.013213 0.039635 0.00727 0 0.013211 0.0327 0.013211 0.072665s0.00594 0.072665 0.013211 0.072665c0.00789 0 0.013213 0.050645 0.013213 0.12551 0 0.074867-0.00534 0.12551-0.013213 0.12551-0.00727 0-0.013211 0.0327-0.013211 0.072665s-0.00594 0.072665-0.013211 0.072665c-0.00727 0-0.013213 0.017836-0.013213 0.039635s-0.00594 0.039635-0.013211 0.039635c-0.00727 0-0.013211 0.014863-0.013211 0.03303 0 0.018166-0.00594 0.03303-0.013212 0.03303-0.00727 0-0.013211 0.01189-0.013211 0.026423 0 0.014532-0.00594 0.026424-0.013211 0.026424-0.00727 0-0.013213 0.01189-0.013213 0.026424 0 0.014532-0.00594 0.026423-0.013211 0.026423-0.00727 0-0.013211 0.01189-0.013211 0.026424 0 0.014532-0.00555 0.026424-0.012322 0.026424-0.00677 0-0.015953 0.011442-0.020389 0.025419-0.00443 0.013981-0.031592 0.04966-0.060343 0.079286s-0.052276 0.05912-0.052276 0.065543c0 0.00642-0.015302 0.021703-0.034003 0.033957-0.018702 0.012254-0.058832 0.045694-0.089179 0.074309-0.030346 0.028615-0.06558 0.055346-0.078296 0.0594-0.012716 0.00406-0.02312 0.012915-0.02312 0.019693 0 0.00677-0.011891 0.012321-0.026423 0.012321-0.014533 0-0.026424 0.00594-0.026424 0.013211 0 0.00727-0.011891 0.013212-0.026424 0.013212-0.014532 0-0.026423 0.00594-0.026423 0.013211 0 0.00727-0.00892 0.013211-0.019818 0.013211-0.010904 0-0.019817 0.00594-0.019817 0.013212 0 0.00727-0.017836 0.013211-0.039635 0.013211-0.0218 0-0.039635 0.00594-0.039635 0.013211 0 0.00727-0.017836 0.013213-0.039635 0.013213-0.0218 0-0.039635 0.00594-0.039635 0.013211 0 0.00727-0.0327 0.013211-0.072665 0.013211s-0.072665 0.00594-0.072665 0.013213c0 0.00797-0.055049 0.013211-0.13872 0.013211-0.083674 0-0.13872-0.00524-0.13872-0.013211zm0.39913-0.27895c0.052969-0.016561 0.098291-0.034888 0.10071-0.040726 0.00242-0.00584 0.015799-0.010612 0.029727-0.010612 0.013927 0 0.025323-0.00594 0.025323-0.013211 0-0.00727 0.00971-0.013211 0.021571-0.013211 0.011864 0 0.031186-0.010682 0.042938-0.023747 0.011751-0.01306 0.042177-0.038085 0.067608-0.055609 0.025433-0.017524 0.053805-0.042217 0.06305-0.054873 0.00924-0.012656 0.025594-0.031798 0.036333-0.042536 0.01074-0.01074 0.019523-0.022975 0.019523-0.027193 0-0.00422 0.017836-0.026334 0.039635-0.049145 0.0218-0.022811 0.039635-0.04951 0.039635-0.059332 0-0.00983 0.00594-0.017858 0.013213-0.017858 0.00727 0 0.013211-0.01189 0.013211-0.026423 0-0.014534 0.00594-0.026424 0.013211-0.026424 0.00727 0 0.013213-0.011971 0.013213-0.026603 0-0.01463 0.00555-0.036927 0.012335-0.049544 0.00679-0.012618 0.018675-0.050841 0.026424-0.084941 0.00775-0.0341 0.013876-0.12031 0.013617-0.19157-2.498e-4 -0.072064-0.00951-0.16475-0.020849-0.20884-0.011208-0.043599-0.02358-0.092647-0.027493-0.109-0.00392-0.01635-0.012367-0.029727-0.018785-0.029727-0.00642 0-0.011676-0.01189-0.011676-0.026423 0-0.014532-0.00594-0.026424-0.013211-0.026424-0.00727 0-0.013213-0.00779-0.013213-0.017326 0-0.00954-0.01189-0.030089-0.026423-0.045689-0.014534-0.015599-0.026424-0.034556-0.026424-0.042126s-0.00594-0.013765-0.013211-0.013765c-0.00727 0-0.013213-0.00665-0.013213-0.014766 0-0.00812-0.023081-0.037848-0.051292-0.066059-0.028212-0.02821-0.057937-0.051292-0.066059-0.051292-0.00812 0-0.014766-0.00594-0.014766-0.013212 0-0.00727-0.0076-0.013211-0.016901-0.013211-0.00929 0-0.02547-0.011891-0.035945-0.026424-0.010471-0.014532-0.029623-0.026423-0.042552-0.026423s-0.023507-0.00454-0.023507-0.010097c0-0.00556-0.025268-0.021112-0.05615-0.034579-0.030882-0.013466-0.085875-0.033897-0.12221-0.0454-0.044961-0.014236-0.1188-0.021126-0.2312-0.021572-0.103-3.995e-4 -0.18503 0.00591-0.21799 0.01678-0.029066 0.00959-0.064737 0.022261-0.079271 0.02816-0.014532 0.0059-0.054664 0.024796-0.089179 0.041995-0.034515 0.017198-0.062755 0.035738-0.062755 0.041201 0 0.00546-0.00913 0.00993-0.020288 0.00993-0.011162 0-0.067639 0.047413-0.12551 0.10536-0.057872 0.05795-0.10522 0.11312-0.10522 0.12259 0 0.00948-0.01189 0.025802-0.026424 0.036276-0.014532 0.010471-0.026423 0.029623-0.026423 0.042552s-0.00594 0.023507-0.013213 0.023507c-0.00727 0-0.013211 0.011536-0.013211 0.025643 0 0.014104-0.00501 0.028736-0.011115 0.032515-0.00612 0.00378-0.021822 0.052332-0.034909 0.10789-0.018744 0.079592-0.022271 0.13365-0.016624 0.25484 0.00394 0.084599 0.014555 0.17165 0.023584 0.19345 0.00903 0.021799 0.034457 0.079765 0.056505 0.12881 0.022048 0.049048 0.044979 0.089179 0.050958 0.089179 0.00598 0 0.010869 0.00821 0.010869 0.018242 0 0.010038 0.041329 0.060569 0.091844 0.1123 0.050514 0.051731 0.098077 0.094057 0.10569 0.094057 0.00762 0 0.013849 0.00594 0.013849 0.013213 0 0.00727 0.00892 0.013211 0.019817 0.013211 0.010904 0 0.019817 0.00594 0.019817 0.013211 0 0.00727 0.01189 0.013213 0.026424 0.013213 0.014532 0 0.026424 0.00594 0.026424 0.013211 0 0.00727 0.011891 0.013211 0.026423 0.013211 0.014533 0 0.026424 0.00594 0.026424 0.013213 0 0.00727 0.011536 0.013211 0.025643 0.013211 0.014104 0 0.02869 0.00493 0.032413 0.010951 0.00372 0.00603 0.038259 0.017843 0.076747 0.026266 0.038488 0.00842 0.081868 0.018063 0.0964 0.021427 0.014532 0.00337 0.081181 0.00392 0.14811 0.00125 0.077392-0.0031 0.15674-0.015826 0.21799-0.034976zm-2.6121-0.7425c-0.014533-0.015926-0.033339-0.048261-0.04179-0.071856-0.008452-0.023595-0.009938-0.042901-0.003303-0.042901s0.012064-0.010986 0.012064-0.024402c0-0.013421 0.011102-0.037202 0.02467-0.052847 0.024011-0.027685 0.033385-0.028446 0.35105-0.028446 0.26525 0 0.32992 0.00353 0.34526 0.018874 0.010381 0.010378 0.018874 0.028216 0.018874 0.039635s0.005945 0.020761 0.013212 0.020761c0.007267 0 0.013212 0.020808 0.013212 0.046241s-0.005545 0.046241-0.012321 0.046241c-0.006777 0-0.016095 0.011891-0.020708 0.026423-0.004612 0.014532-0.016904 0.026424-0.027314 0.026424-0.01041 0-0.018927 0.00594-0.018927 0.013211 0 0.00846-0.11286 0.012921-0.31378 0.012403-0.30557-7.882e-4 -0.31447-0.00157-0.3402-0.029764zm4.0692 0.012883c-0.00727-0.00917-0.020643-0.029679-0.029727-0.045559-0.00908-0.01588-0.016514-0.044016-0.016514-0.062522 0-0.020779 0.017518-0.051168 0.045801-0.07945l0.0458-0.045801h0.30431c0.19406 0 0.30431 0.00479 0.30431 0.013213 0 0.00727 0.00636 0.013211 0.014156 0.013211 0.00778 0 0.021199 0.00743 0.029806 0.016514 0.00861 0.00908 0.021834 0.03435 0.029396 0.05615 0.00954 0.027496 0.00951 0.051775-1e-4 0.079271-0.0076 0.021799-0.02083 0.047067-0.029396 0.056149-0.011688 0.012394-0.099047 0.016389-0.35011 0.016012-0.25318-3.998e-4 -0.33775-0.0045631-0.34775-0.017187zm-0.48223-1.1978c0-0.00727-0.012315-0.013211-0.027367-0.013211s-0.03586-0.00849-0.046241-0.018874c-0.010378-0.010378-0.018874-0.028216-0.018874-0.039635s-0.00594-0.020761-0.013211-0.020761c-0.00727 0-0.013211-0.017858-0.013211-0.039686 0-0.034005 0.037101-0.076556 0.25919-0.29726 0.21643-0.21508 0.26547-0.25758 0.29726-0.25758 0.02094 0 0.038074 0.005943 0.038074 0.013211 0 0.007266 0.00934 0.013211 0.020761 0.013211 0.011419 0 0.029254 0.008494 0.039635 0.018874 0.010378 0.010378 0.018872 0.028216 0.018872 0.039635s0.00594 0.020761 0.01321 0.020761 0.01321 0.014863 0.01321 0.03303-0.00594 0.03303-0.01321 0.03303-0.01321 0.00606-0.01321 0.013456c0 0.007406-0.037931 0.052704-0.084289 0.10067-0.04636 0.04797-0.10135 0.10428-0.12221 0.12514-0.020855 0.020855-0.076562 0.075706-0.12379 0.12189-0.047232 0.046186-0.094619 0.096779-0.10531 0.11243-0.010682 0.015651-0.032982 0.028457-0.049544 0.028457s-0.030113 0.00594-0.030113 0.013211c0 0.00727-0.00892 0.013211-0.019818 0.013211-0.010904 0-0.019817-0.00594-0.019817-0.013211zm-2.4902-0.030503c-0.01442-0.00866-0.053064-0.044979-0.085876-0.080718-0.032811-0.035739-0.073969-0.077356-0.091462-0.092482-0.017492-0.015126-0.056136-0.051997-0.085876-0.081936-0.02974-0.029938-0.085285-0.087122-0.12343-0.12707-0.061151-0.064041-0.069361-0.079213-0.069361-0.12817 0-0.030541 0.008493-0.064023 0.018874-0.074405 0.010381-0.010378 0.028217-0.018874 0.039635-0.018874 0.011419 0 0.020762-0.005943 0.020762-0.013211 0-0.007266 0.015646-0.013212 0.03477-0.013212 0.023908 0 0.05747 0.021668 0.10744 0.069362 0.039969 0.038148 0.1031 0.10024 0.14029 0.13799 0.037188 0.037746 0.086598 0.088282 0.1098 0.1123 0.023202 0.024018 0.066305 0.06561 0.095785 0.092427 0.047923 0.043593 0.0536 0.055237 0.0536 0.10994 0 0.033651-0.00766 0.06819-0.017026 0.076754-0.00936 0.00856-0.030092 0.023003-0.046062 0.032085-0.01597 0.00908-0.039521 0.016166-0.052335 0.015737-0.012815-4.493e-4 -0.035098-0.00786-0.049518-0.016515zm1.2219-0.49796c0-0.007266-0.00935-0.013212-0.020761-0.013212-0.011419 0-0.02898-0.008225-0.039027-0.018266-0.014577-0.014577-0.018679-0.093134-0.020306-0.38891l-0.0020477-0.37065 0.033861-0.033861c0.026561-0.026561 0.047011-0.033861 0.094858-0.033861 0.035248 0 0.068964 0.0079675 0.079871 0.018874 0.010378 0.010378 0.018874 0.028216 0.018874 0.039635s0.00594 0.020761 0.013212 0.020761c0.00848 0 0.013211 0.12602 0.013211 0.35163v0.35163l-0.048823 0.04472c-0.031206 0.028584-0.062192 0.04472-0.085876 0.04472-0.020379 0-0.037053-0.005943-0.037053-0.013211z" stroke-width=".049934"/></svg>
