<svg width="13" height="15" viewBox="0 0 13 15" fill="none" xmlns="http://www.w3.org/2000/svg">
<path d="M11.3125 6.875H10.6562V4.90625C10.6562 2.63672 8.76953 0.75 6.5 0.75C4.20312 0.75 2.34375 2.63672 2.34375 4.90625V6.875H1.6875C0.949219 6.875 0.375 7.47656 0.375 8.1875V13.4375C0.375 14.1758 0.949219 14.75 1.6875 14.75H11.3125C12.0234 14.75 12.625 14.1758 12.625 13.4375V8.1875C12.625 7.47656 12.0234 6.875 11.3125 6.875ZM8.46875 6.875H4.53125V4.90625C4.53125 3.83984 5.40625 2.9375 6.5 2.9375C7.56641 2.9375 8.46875 3.83984 8.46875 4.90625V6.875Z" fill="white"/>
</svg>
