<svg width="28" height="28" version="1.1" viewBox="0 0 7.4083 7.4083" xml:space="preserve" xmlns="http://www.w3.org/2000/svg"><g transform="matrix(.099437 0 0 .099437 3.3752 3.4572)"><path d="m33.614 39.48c0.32912-0.06329 0.80537-0.06088 1.0583 0.0053 0.25296 0.06622-0.01631 0.118-0.5984 0.11507-0.58208-0.0029-0.78906-0.05712-0.45994-0.12041zm1.5353-5.8207c-0.14358-0.37708-0.11319-0.40748 0.14811-0.14811 0.18082 0.17948 0.26212 0.39297 0.18065 0.47443-0.08146 0.08146-0.22941-0.06538-0.32877-0.32632zm-9.1789-0.80516c-0.32911-0.41964-0.31975-0.429 0.0999-0.09989 0.44073 0.34564 0.58089 0.56292 0.36313 0.56292-0.05494 0-0.2633-0.20836-0.46302-0.46302zm-3.1613-3.7042-0.64143-0.7276 0.7276 0.64143c0.68006 0.59952 0.84894 0.81378 0.64143 0.81378-0.04739 0-0.37482-0.32742-0.7276-0.7276zm7.1438-2.1167-0.64143-0.7276 0.7276 0.64143c0.68006 0.59952 0.84894 0.81378 0.64143 0.81378-0.04739 0-0.37482-0.32742-0.7276-0.7276zm-12.044-3.5719-0.50403-0.59531 0.59531 0.50403c0.55945 0.47366 0.71576 0.6866 0.50403 0.6866-0.05021 0-0.3181-0.26789-0.59531-0.59531zm-24.234 0.14999c0.191-0.07643 0.4192-0.06703 0.50712 0.02089 0.087919 0.08792-0.068351 0.15045-0.34727 0.13896-0.30822-0.0127-0.37092-0.07539-0.15985-0.15985zm10.319 0c0.191-0.07643 0.4192-0.06703 0.50712 0.02089 0.087919 0.08792-0.068351 0.15045-0.34727 0.13896-0.30822-0.0127-0.37092-0.07539-0.15985-0.15985zm22.77-0.28228c-0.32911-0.41964-0.31975-0.429 0.0999-0.0999 0.44073 0.34564 0.58089 0.56292 0.36313 0.56292-0.05494 0-0.2633-0.20836-0.46302-0.46302zm-36.264-0.51147c0.191-0.07643 0.4192-0.06703 0.50712 0.02089 0.087919 0.08792-0.068351 0.15045-0.34727 0.13896-0.30822-0.0127-0.37092-0.07539-0.15985-0.15985zm34.553-1.4729-0.50403-0.59531 0.59531 0.50403c0.32742 0.27722 0.59531 0.54511 0.59531 0.59531 0 0.21173-0.21294 0.05542-0.6866-0.50403zm-39.001-0.19844c-0.23847-0.15411-0.2711-0.2581-0.08176-0.26053 0.17331-0.0022 0.3887 0.11501 0.47864 0.26053 0.20302 0.32849 0.11142 0.32849-0.39688 0zm29.363-0.66785c-0.18408-0.2218-0.28344-0.45451-0.22082-0.51713 0.06263-0.06263 0.2592 0.11884 0.43682 0.40327 0.38412 0.61508 0.25602 0.68262-0.216 0.11386zm-31.346-0.38745c-0.09269-0.14998 0.01351-0.19434 0.24897-0.10398 0.45837 0.17589 0.54223 0.36554 0.16165 0.36554-0.13693 0-0.32171-0.1177-0.41062-0.26155zm11.974-1.2485c0.32912-0.06329 0.80537-0.06088 1.0583 0.0053 0.25296 0.06622-0.016314 0.118-0.5984 0.11507-0.58208-0.0029-0.78905-0.05712-0.45994-0.12041zm5.0271 0c0.32912-0.06329 0.80537-0.06088 1.0583 0.0053 0.25296 0.06622-0.016314 0.118-0.5984 0.11507-0.58208-0.0029-0.78905-0.05712-0.45994-0.12041zm20.681-1.3342-0.64143-0.7276 0.7276 0.64143c0.68006 0.59952 0.84894 0.81378 0.64143 0.81378-0.04739 0-0.37482-0.32742-0.7276-0.7276zm-43.386-1.8521-0.9118-0.99219 0.99219 0.9118c0.92351 0.84868 1.1138 1.0726 0.9118 1.0726-0.04421 0-0.4907-0.44648-0.99219-0.99219zm-1.8431-2.0569c-0.18408-0.2218-0.28344-0.45451-0.22082-0.51713 0.06263-0.06263 0.2592 0.11884 0.43682 0.40327 0.38413 0.61508 0.25602 0.68261-0.216 0.11386zm6.5861-0.32434c-0.32911-0.41964-0.31975-0.429 0.0999-0.0999 0.25466 0.19972 0.46302 0.40808 0.46302 0.46302 0 0.21776-0.21727 0.0776-0.56292-0.36313zm33.239-1.3891c0.56839-0.58208 1.093-1.0583 1.1657-1.0583 0.07276 0-0.33275 0.47625-0.90114 1.0583-0.56839 0.58208-1.093 1.0583-1.1657 1.0583s0.33275-0.47625 0.90114-1.0583zm-36.538-1.9182-0.50403-0.59531 0.59531 0.50403c0.55945 0.47366 0.71576 0.6866 0.50403 0.6866-0.05021 0-0.3181-0.26789-0.59531-0.59531zm43.963 0.25317c0.09936-0.26094 0.2473-0.40778 0.32877-0.32632 0.08146 0.081462 1.68e-4 0.29496-0.18065 0.47443-0.26131 0.25936-0.2917 0.22897-0.14811-0.14811zm0.79375-1.3229c0.09936-0.26094 0.2473-0.40778 0.32877-0.32632 0.08146 0.081462 1.68e-4 0.29496-0.18065 0.47443-0.26131 0.25936-0.2917 0.22897-0.14811-0.14811zm-4.2333-2.1167c0.09936-0.26094 0.2473-0.40778 0.32876-0.32632 0.08146 0.081462 1.68e-4 0.29496-0.18065 0.47443-0.26131 0.25936-0.2917 0.22897-0.14811-0.14811zm-49.341-3.781c0.0127-0.30822 0.07539-0.37092 0.15985-0.15985 0.07643 0.191 0.06703 0.4192-0.02089 0.50712-0.08792 0.087919-0.15045-0.068351-0.13896-0.34727zm3.9896-3.0207c0-0.3638 0.06005-0.51263 0.13345-0.33073 0.0734 0.1819 0.0734 0.47956 0 0.66146-0.0734 0.1819-0.13345 0.033073-0.13345-0.33073zm-4.7625-0.26458c0-0.3638 0.06005-0.51263 0.13345-0.33073 0.0734 0.1819 0.0734 0.47956 0 0.66146s-0.13345 0.033073-0.13345-0.33073zm52.896-0.68351c0.0127-0.30822 0.07539-0.37092 0.15985-0.15985 0.07643 0.191 0.06703 0.4192-0.02089 0.50712-0.08792 0.087919-0.15045-0.068351-0.13896-0.34727zm4.8137-0.90399c0-0.65484 0.0516-0.92273 0.11466-0.59531 0.06306 0.32742 0.06306 0.8632 0 1.1906s-0.11466 0.059531-0.11466-0.59531zm-53.476-1.5875c0-0.3638 0.06005-0.51263 0.13345-0.33073 0.0734 0.1819 0.0734 0.47956 0 0.66146-0.0734 0.1819-0.13345 0.033073-0.13345-0.33073zm53.465-4.7625c0-0.50932 0.05445-0.71768 0.121-0.46302s0.06655 0.67138 0 0.92604-0.121 0.046302-0.121-0.46302zm-4.7821-0.79375c0-0.3638 0.06005-0.51263 0.13345-0.33073 0.0734 0.1819 0.0734 0.47956 0 0.66146-0.0734 0.1819-0.13345 0.033073-0.13345-0.33073zm-52.917-0.52917c0-0.3638 0.06005-0.51263 0.13345-0.33073 0.0734 0.1819 0.0734 0.47956 0 0.66146-0.0734 0.1819-0.13345 0.033073-0.13345-0.33073zm4.7416-0.41892c0.0127-0.30822 0.07539-0.37092 0.15985-0.15985 0.07643 0.191 0.06703 0.4192-0.02089 0.50712-0.08792 0.087919-0.15045-0.068351-0.13896-0.34727zm52.123-2.3813c0.0127-0.30822 0.07539-0.37092 0.15985-0.15985 0.07643 0.191 0.06703 0.4192-0.02089 0.50712-0.08792 0.08792-0.15045-0.06835-0.13896-0.34727zm-56.092-0.79375c0.0127-0.30822 0.07539-0.37092 0.15985-0.15985 0.07643 0.191 0.06703 0.4192-0.02089 0.50712-0.08792 0.08792-0.15045-0.06835-0.13896-0.34727zm52.102-8.0477c-0.15576-0.29104-0.22367-0.52917-0.15091-0.52917s0.25973 0.23812 0.41549 0.52917c0.15576 0.29104 0.22367 0.52917 0.15091 0.52917-0.07276 0-0.25973-0.23812-0.41549-0.52917zm-47.625-0.98184c0-0.15196 0.20836-0.43969 0.46302-0.63941 0.4283-0.33589 0.43391-0.32344 0.07487 0.16604-0.21348 0.29104-0.42184 0.57878-0.46302 0.63941-0.04118 0.06063-0.07487-0.01408-0.07487-0.16604zm46.533-0.53952c-0.32911-0.41964-0.31975-0.429 0.09989-0.0999 0.44073 0.34564 0.58089 0.56292 0.36313 0.56292-0.05494 0-0.2633-0.20836-0.46302-0.46302zm-45.342-1.1245c0.26339-0.29104 0.53842-0.52917 0.61118-0.52917 0.07276 0-0.08321 0.23812-0.3466 0.52917-0.26339 0.29104-0.53842 0.52917-0.61118 0.52917-0.07276 0 0.08321-0.23812 0.3466-0.52917zm42.869-1.669c-1.2575-1.2918-1.6656-1.8168-1.0101-1.2995 0.9164 0.72321 3.5065 3.5323 3.2107 3.4823-0.04993-0.0084-1.0402-0.99072-2.2007-2.1828zm-39.562-1.6383c0.34177-0.3638 0.68094-0.66146 0.7537-0.66146s-0.14734 0.29766-0.48912 0.66146c-0.34177 0.3638-0.68094 0.66146-0.7537 0.66146s0.14734-0.29766 0.48912-0.66146zm26.144-0.8422c0.191-0.07643 0.4192-0.06703 0.50712 0.02089 0.087919 0.08792-0.068351 0.15045-0.34727 0.13896-0.30822-0.0127-0.37092-0.07539-0.15985-0.15985zm-12.435-0.52917c0.191-0.07643 0.4192-0.06703 0.50712 0.02089 0.087919 0.08792-0.068351 0.15045-0.34727 0.13896-0.30822-0.0127-0.37092-0.07539-0.15985-0.15985zm10.319 0c0.191-0.07643 0.4192-0.06703 0.50712 0.02089 0.087919 0.08792-0.068351 0.15045-0.34727 0.13896-0.30822-0.0127-0.37092-0.07539-0.15985-0.15985zm-19-2.0399c0-0.05719 0.18478-0.17489 0.41062-0.26155 0.23546-0.09036 0.34166-0.046 0.24897 0.10398-0.15538 0.25141-0.65958 0.37186-0.65958 0.15757zm6.8296-2.7226c0.191-0.07643 0.4192-0.06703 0.50712 0.02089 0.087919 0.08792-0.068351 0.15045-0.34727 0.13896-0.30822-0.0127-0.37092-0.07539-0.15985-0.15985zm14.023 0c0.191-0.07643 0.4192-0.06703 0.50712 0.02089 0.087919 0.08792-0.068351 0.15045-0.34727 0.13896-0.30822-0.0127-0.37092-0.07539-0.15985-0.15985zm-9.5415-0.80441c0.47294-0.05869 1.2468-0.05869 1.7198 0 0.47294 0.05869 0.08599 0.10671-0.8599 0.10671-0.94589 0-1.3328-0.04802-0.8599-0.10671zm3.7042 0c0.47294-0.05869 1.2468-0.05869 1.7198 0 0.47294 0.05869 0.08599 0.10671-0.8599 0.10671-0.94589 0-1.3328-0.04802-0.8599-0.10671z" fill="#d0d0d0"/><path d="m31.711 38.692c-1.2406-0.81118-1.4682-1.0334-3.3367-3.2579-0.79451-0.94589-1.5636-1.8477-1.7092-2.0041-0.14552-0.15638-0.8599-0.98506-1.5875-1.8415-1.3903-1.6365-3.3418-3.8672-3.5797-4.0919-0.07705-0.07276-1.0878-1.2634-2.246-2.6458-1.1583-1.3824-2.1889-2.5507-2.2902-2.596-0.10136-0.04537-0.56158-0.67045-1.0227-1.3891-0.82916-1.2921-1.2339-1.5408-1.7225-1.0584-0.13824 0.13651-1.135 0.68405-2.2151 1.2168-4.0034 1.9745-8.5091 3.0237-12.985 3.0237-2.4985 0-6.4184-0.507-7.6764-0.99286-0.36191-0.13978-1.3129-0.46936-2.1132-0.73241-1.9122-0.62846-5.4887-2.5064-7.3652-3.8674-1.9674-1.4269-5.4824-5.026-6.5445-6.7012-0.27679-0.43656-0.65758-0.95504-0.8462-1.1522-0.49221-0.51441-2.5588-4.9817-2.9553-6.3885-0.18458-0.65484-0.44335-1.4665-0.57504-1.8037-0.37078-0.94932-1.0284-5.6889-1.0284-7.4119 0-1.8068 0.6338-6.2685 1.0897-7.6707 0.6783-2.0864 1.3502-3.9236 1.7589-4.8095 0.42407-0.9192 2.4181-4.2443 2.6973-4.4979 0.08012-0.07276 0.49504-0.60854 0.92206-1.1906 3.241-4.418 9.6393-8.4828 15.792-10.033 2.4583-0.61921 3.3356-0.70831 6.9563-0.70643 4.0396 0.0021 4.6555 0.08507 8.4868 1.1434 2.977 0.82231 7.6015 3.2783 9.5248 5.0585 0.29116 0.2695 0.92049 0.79281 1.3985 1.1629 0.83192 0.64412 3.4956 3.7525 4.7567 5.5509 0.64826 0.92444 2.3804 4.214 2.8942 5.4964 0.17486 0.43644 0.64348 1.9842 1.0414 3.4394 0.6615 2.4192 0.72186 3.0311 0.70461 7.1438-0.01933 4.61-0.2263 5.9252-1.5405 9.7896-0.9754 2.8681-3.7778 7.5962-5.689 9.5982l-0.82763 0.86699 1.393 1.6466c0.76613 0.90561 1.5193 1.7656 1.6737 1.9111 0.15439 0.14552 0.93553 1.0385 1.7359 1.9844 0.80034 0.94588 1.892 2.196 2.4259 2.7781 0.53392 0.58208 1.3473 1.5346 1.8075 2.1167 0.46018 0.58208 1.276 1.5346 1.8129 2.1167 4.7278 5.1254 6.3622 8.4654 5.2216 10.671-0.40492 0.78303-0.52471 0.83731-1.8158 0.82277-1.02-0.01149-1.6548-0.19373-2.4218-0.6953zm-27.987-20.074c2.619-0.6078 3.7277-0.94955 5.346-1.6479 1.5376-0.66346 4.0405-2.1569 4.1892-2.4997 0.04851-0.11177 0.24694-0.20322 0.44097-0.20322 0.19403 0 0.39246-0.09018 0.44097-0.20041 0.04851-0.11022 0.5957-0.59766 1.216-1.0832 1.0385-0.81287 3.406-3.563 4.7047-5.465 0.82576-1.2094 2.1118-4.2704 2.7227-6.4806 1.5095-5.4608 0.78454-11.947-1.901-17.009-1.2728-2.3992-2.0299-3.393-4.3927-5.7663-2.5175-2.5286-4.1924-3.7053-7.1562-5.0278-0.65484-0.2922-1.3776-0.63253-1.606-0.7563-0.72255-0.39142-3.4654-1.007-6.0205-1.3512-1.9757-0.26613-3.0034-0.26653-5.1594-2e-3 -5.4582 0.66969-8.9297 2.117-13.22 5.5115-6.1895 4.8975-9.7003 13.458-8.6708 21.141 0.19157 1.4296 0.51163 3.0007 0.71124 3.4914 0.19961 0.49071 0.36344 1.086 0.36407 1.3229 0.0013 0.50776 2.4169 5.3664 2.9108 5.8547 0.07359 0.07276 0.44997 0.55697 0.8364 1.076 1.5948 2.1421 6.1691 6.0677 7.0704 6.0677 0.16157 0 0.29377 0.09615 0.29377 0.21366s0.50602 0.42516 1.1245 0.68364c0.61846 0.25849 1.4817 0.62816 1.9182 0.8215 0.78699 0.34853 1.5575 0.57778 4.3656 1.299 2.0222 0.51934 7.2522 0.5249 9.4706 0.01007z" fill="current"/></g></svg>
