<svg width="19" height="19" version="1.1" viewBox="0 0 5.0271 5.0271" xml:space="preserve" xmlns="http://www.w3.org/2000/svg"><path d="m1.9916 4.9893c0-0.00492-0.014075-0.00894-0.031276-0.00894-0.021843 0-0.031276-0.00404-0.031276-0.013404 0-0.00834-0.00844-0.013404-0.02234-0.013404-0.012288 0-0.02234-0.00402-0.02234-0.00894s-0.012064-0.00894-0.026808-0.00894c-0.017872 0-0.026808-0.00447-0.026808-0.013404 0-0.00928-0.00933-0.013403-0.03032-0.013403-0.018708 0-0.03229-0.00513-0.035463-0.013404-0.00283-0.00737-0.013313-0.013404-0.023296-0.013404-0.00998 0-0.018153-0.00402-0.018153-0.00894s-0.016085-0.00894-0.035744-0.00894c-0.025815 0-0.035743-0.00372-0.035743-0.013404 0-0.00834-0.00844-0.013404-0.02234-0.013404-0.012288 0-0.02234-0.00402-0.02234-0.00894s-0.016085-0.00894-0.035744-0.00894c-0.025815 0-0.035744-0.00372-0.035744-0.013404 0-0.00834-0.00844-0.013404-0.02234-0.013404-0.012288 0-0.02234-0.00402-0.02234-0.00894s-0.010053-0.00894-0.02234-0.00894c-0.0139 0-0.02234-0.00506-0.02234-0.013404 0-0.00962-0.00982-0.013403-0.034788-0.013403-0.022679 0-0.036578-0.00467-0.039931-0.013404-0.00283-0.00737-0.013313-0.013404-0.023296-0.013404-0.00998 0-0.018153-0.00402-0.018153-0.00894s-0.016085-0.00894-0.035743-0.00894c-0.025815 0-0.035744-0.00372-0.035744-0.013403 0-0.00834-0.00844-0.013404-0.02234-0.013404-0.012288 0-0.02234-0.00402-0.02234-0.00894s-0.010053-0.00894-0.02234-0.00894c-0.0139 0-0.02234-0.00506-0.02234-0.013404 0-0.00968-0.00993-0.013404-0.035744-0.013404-0.034893 0-0.035744-7.405e-4 -0.035744-0.031275 0-0.021843 0.00404-0.031275 0.013404-0.031275 0.010128 0 0.013404-0.010921 0.013404-0.04468 0-0.024573 0.00402-0.04468 0.00894-0.04468 0.00504 0 0.00894-0.025318 0.00894-0.058084 0-0.045673 0.00286-0.058084 0.013404-0.058084 0.010128 0 0.013404-0.010922 0.013404-0.04468 0-0.024573 0.00402-0.04468 0.00894-0.04468s0.00894-0.019676 0.00894-0.043723c0-0.030622 0.00402-0.045265 0.013404-0.048868 0.00983-0.00377 0.013404-0.019269 0.013404-0.058084s0.00358-0.054312 0.013404-0.058084c0.00946-0.00363 0.013404-0.018383 0.013404-0.050104 0-0.024728 0.00402-0.04496 0.00894-0.04496s0.00894-0.020393 0.00894-0.045318c0-0.043803-0.013401-0.070849-0.035106-0.070849-0.00527 0-0.00957-0.00603-0.00957-0.013404 0-0.00737-0.00603-0.013404-0.013404-0.013404-0.00737 0-0.013404-0.00431-0.013404-0.00957 0-0.0199-0.026817-0.035106-0.061913-0.035106-0.02001 0-0.036382 0.00402-0.036382 0.00894 0 0.00497-0.023922 0.00894-0.053896 0.00894-0.039664 0-0.055254 0.00354-0.059039 0.013404-0.003604 0.00939-0.018245 0.013404-0.048868 0.013404-0.032908 0-0.043723 0.00331-0.043723 0.013404 0 0.010128-0.010922 0.013404-0.04468 0.013404-0.024574 0-0.04468 0.00402-0.04468 0.00894 0 0.00504-0.025319 0.00894-0.058084 0.00894-0.045673 0-0.058084 0.00286-0.058084 0.013404 0 0.010128-0.010922 0.013404-0.04468 0.013404-0.024574 0-0.04468 0.00402-0.04468 0.00894 0 0.00504-0.025318 0.00894-0.058084 0.00894-0.045673 0-0.058084 0.00286-0.058084 0.013403 0 0.00936-0.009433 0.013404-0.031276 0.013404-0.030531 0-0.031276-8.534e-4 -0.031276-0.035743 0-0.025815-0.003724-0.035743-0.013404-0.035743-0.00834 0-0.013404-0.00844-0.013404-0.02234 0-0.012288-0.004021-0.02234-0.008935-0.02234s-0.008935-0.016085-0.008935-0.035743c0-0.025815-0.003724-0.035744-0.013404-0.035744-0.00834 0-0.013404-0.00844-0.013404-0.02234 0-0.012288-0.004021-0.02234-0.008935-0.02234s-0.008935-0.00817-0.008935-0.018153c0-0.00998-0.006032-0.020467-0.013404-0.023295-0.008739-0.00336-0.013404-0.017252-0.013404-0.039931 0-0.024965-0.003785-0.034788-0.013404-0.034788-0.00834 0-0.013404-0.00844-0.013404-0.02234 0-0.012286-0.004021-0.022339-0.008935-0.022339s-0.008935-0.0142-0.008935-0.031556c0-0.019807-0.004991-0.033472-0.013404-0.0367-0.007372-0.00283-0.013404-0.014766-0.013404-0.026528s-0.004021-0.021384-0.008935-0.021384-0.008935-0.00817-0.008935-0.018152c0-0.00998-0.006032-0.020467-0.013404-0.023296-0.008206-0.00315-0.013404-0.016697-0.013404-0.034936 0-0.016386-0.004021-0.032278-0.008935-0.035315-0.004914-0.00303-0.008935-0.013454-0.008935-0.023148 0-0.00969-0.006032-0.01994-0.013404-0.022769-0.008271-0.00317-0.013404-0.016756-0.013404-0.035463 0-0.020993-0.004122-0.03032-0.013404-0.03032-0.008935 0-0.013404-0.00894-0.013404-0.026808 0-0.014744-0.004021-0.026808-0.0089354-0.026808-0.0049143 0-0.0089354-0.010054-0.0089354-0.02234 0-0.0139-0.0050638-0.02234-0.013404-0.02234-0.0093621 0-0.013404-0.00943-0.013404-0.031276 0-0.017201-0.0040214-0.031276-0.0089354-0.031276-0.0049143 0-0.0089354-0.020106-0.0089354-0.04468 0-0.039236 0.0022547-0.04468 0.01851-0.04468 0.019784 0 0.044041-0.019336 0.044041-0.035105 0-0.00527 0.00949-0.00957 0.021088-0.00957 0.012062 0 0.028268-0.00956 0.037865-0.02234 0.009239-0.012305 0.02586-0.02234 0.036995-0.02234 0.012015 0 0.020219-0.00544 0.020219-0.013404 0-0.00834 0.008439-0.013404 0.02234-0.013404 0.012288 0 0.02234-0.00402 0.02234-0.00894s0.006032-0.00894 0.013404-0.00894c0.007372 0 0.013404-0.00603 0.013404-0.013404 0-0.00773 0.008077-0.013404 0.019081-0.013404 0.010494 0 0.028398-0.010054 0.039785-0.02234 0.011387-0.012288 0.028938-0.02234 0.039002-0.02234 0.010308 0 0.018298-0.00585 0.018298-0.013403 0-0.00773 0.008077-0.013404 0.019081-0.013404 0.010494 0 0.028398-0.010054 0.039785-0.02234 0.011387-0.012288 0.027215-0.02234 0.035173-0.02234 0.016404 0 0.04-0.020709 0.04-0.035105 0-0.00527 0.010054-0.00957 0.02234-0.00957 0.012288 0 0.02234-0.00402 0.02234-0.00894s0.009159-0.00894 0.020354-0.00894c0.038111 0 0.051134-0.028448 0.051134-0.1117 0-0.083252-0.013023-0.1117-0.051134-0.1117-0.011195 0-0.020354-0.00402-0.020354-0.00894s-0.010054-0.00894-0.02234-0.00894c-0.012288 0-0.02234-0.00431-0.02234-0.00957 0-0.014396-0.023597-0.035105-0.04-0.035105-0.007957 0-0.023786-0.010053-0.035173-0.02234-0.011387-0.012288-0.02929-0.02234-0.039785-0.02234-0.011004 0-0.019081-0.00568-0.019081-0.013404 0-0.00755-0.007991-0.013404-0.018298-0.013404-0.010064 0-0.027615-0.010053-0.039002-0.022339-0.011387-0.012288-0.02929-0.02234-0.039785-0.02234-0.011004 0-0.019081-0.00568-0.019081-0.013404 0-0.00737-0.006032-0.013404-0.013404-0.013404-0.007372 0-0.013404-0.00402-0.013404-0.00894s-0.010053-0.00894-0.02234-0.00894c-0.0139 0-0.02234-0.00506-0.02234-0.013404 0-0.00797-0.008203-0.013404-0.020219-0.013404-0.011135 0-0.027755-0.010036-0.036995-0.02234-0.009597-0.012779-0.025802-0.02234-0.037865-0.02234-0.012788 0-0.021088-0.00528-0.021088-0.013404 0-0.0076-0.0080143-0.013404-0.01851-0.013404-0.010181 0-0.024255-0.00574-0.031276-0.012766-0.0145-0.0145-0.017741-0.094466-0.0038296-0.094466 0.0049143 0 0.0089354-0.014075 0.0089354-0.031275 0-0.021843 0.0040419-0.031276 0.013404-0.031276 0.0083402 0 0.013404-0.00844 0.013404-0.02234 0-0.012286 0.0040214-0.02234 0.0089354-0.02234 0.0049142 0 0.0089354-0.012064 0.0089354-0.026808 0-0.017871 0.004469-0.026808 0.013404-0.026808 0.009282 0 0.013404-0.00933 0.013404-0.03032 0-0.018708 0.005133-0.03229 0.013404-0.035463 0.007372-0.00283 0.013404-0.013313 0.013404-0.023296 0-0.00998 0.004021-0.018152 0.008935-0.018152s0.008935-0.016085 0.008935-0.035744c0-0.025815 0.003724-0.035744 0.013404-0.035744 0.00834 0 0.013404-0.00844 0.013404-0.02234 0-0.012288 0.004021-0.02234 0.008935-0.02234s0.008935-0.010053 0.008935-0.02234c0-0.0139 0.005064-0.02234 0.013404-0.02234 0.00968 0 0.013404-0.00993 0.013404-0.035743 0-0.019659 0.004021-0.035744 0.008935-0.035744 0.004916 0 0.008935-0.010054 0.008935-0.02234 0-0.0139 0.005064-0.02234 0.013404-0.02234 0.009619 0 0.013404-0.00982 0.013404-0.034788 0-0.022679 0.004665-0.036578 0.013404-0.039931 0.007372-0.00283 0.013404-0.013313 0.013404-0.023296 0-0.00998 0.004021-0.018152 0.008935-0.018152s0.008935-0.00962 0.008935-0.021384c0-0.011762 0.006032-0.023698 0.013404-0.026527 0.008413-0.00323 0.013404-0.016893 0.013404-0.0367 0-0.017356 0.004021-0.031556 0.008935-0.031556s0.008935-0.010053 0.008935-0.02234c0-0.0139 0.005064-0.02234 0.013404-0.02234 0.00968 0 0.013404-0.00993 0.013404-0.035744 0-0.034893 7.3982e-4 -0.035744 0.031276-0.035744 0.021843 0 0.031276 0.00404 0.031276 0.013404 0 0.01054 0.012412 0.013404 0.058084 0.013404 0.032765 0 0.058084 0.00389 0.058084 0.00894 0 0.00492 0.020106 0.00894 0.04468 0.00894 0.033758 0 0.04468 0.00328 0.04468 0.013404 0 0.010127 0.010922 0.013404 0.04468 0.013404 0.024574 0 0.04468 0.00402 0.04468 0.00894 0 0.00504 0.025319 0.00894 0.058084 0.00894 0.045673 0 0.058084 0.00286 0.058084 0.013404 0 0.010088 0.010815 0.013404 0.043723 0.013404 0.030622 0 0.045265 0.00402 0.048868 0.013404 0.003632 0.00946 0.018383 0.013404 0.050104 0.013404 0.024728 0 0.04496 0.00402 0.04496 0.00894s0.020393 0.00894 0.045318 0.00894c0.043803 0 0.070849-0.013401 0.070849-0.035106 0-0.00527 0.00603-0.00957 0.013404-0.00957 0.00737 0 0.013404-0.00603 0.013404-0.013404 0-0.00737 0.00431-0.013404 0.00957-0.013404 0.021704 0 0.035106-0.027046 0.035106-0.070849 0-0.024925-0.00402-0.045318-0.00894-0.045318s-0.00894-0.020232-0.00894-0.04496c0-0.031721-0.00395-0.046474-0.013404-0.050104-0.00939-0.003604-0.013404-0.018245-0.013404-0.048868 0-0.032908-0.00331-0.043723-0.013404-0.043723-0.01054 0-0.013404-0.01241-0.013404-0.058084 0-0.032765-0.00389-0.058084-0.00894-0.058084-0.00492 0-0.00894-0.020106-0.00894-0.04468 0-0.033758-0.00328-0.04468-0.013404-0.04468-0.010539 0-0.013404-0.01241-0.013404-0.058084 0-0.032765-0.00389-0.058084-0.00894-0.058084-0.00492 0-0.00894-0.020106-0.00894-0.04468 0-0.033758-0.00328-0.04468-0.013404-0.04468-0.00936 0-0.013404-0.009433-0.013404-0.031276 0-0.030531 8.534e-4 -0.031276 0.035744-0.031276 0.025815 0 0.035744-0.003724 0.035744-0.013404 0-0.00834 0.00844-0.013404 0.02234-0.013404 0.012288 0 0.02234-0.004021 0.02234-0.008935 0-0.004916 0.016085-0.008935 0.035744-0.008935 0.025815 0 0.035744-0.003724 0.035744-0.013404 0-0.00834 0.00844-0.013404 0.02234-0.013404 0.012288 0 0.02234-0.004021 0.02234-0.008935 0-0.004916 0.00817-0.008935 0.018152-0.008935 0.00998 0 0.020467-0.006032 0.023296-0.013404 0.00336-0.008739 0.017252-0.013404 0.039931-0.013404 0.024965 0 0.034788-0.003785 0.034788-0.013404 0-0.00834 0.00844-0.013404 0.02234-0.013404 0.012288 0 0.02234-0.004021 0.02234-0.008935s0.016085-0.008935 0.035744-0.008935c0.025815 0 0.035744-0.003724 0.035744-0.013404 0-0.00834 0.00844-0.013404 0.02234-0.013404 0.012288 0 0.02234-0.004021 0.02234-0.008935s0.00817-0.008935 0.018153-0.008935c0.00998 0 0.020467-0.006032 0.023295-0.013404 0.00336-0.008739 0.017252-0.013404 0.039931-0.013404 0.019133 0 0.034788-0.004021 0.034788-0.008935s0.00817-0.008935 0.018153-0.008935c0.00998 0 0.020467-0.006032 0.023296-0.013404 0.00317-0.008271 0.016756-0.013404 0.035463-0.013404 0.020994 0 0.03032-0.004122 0.03032-0.013404 0-0.0089354 0.00894-0.013404 0.026808-0.013404 0.014744 0 0.026808-0.0040214 0.026808-0.0089354 0-0.0049157 0.010054-0.0089354 0.02234-0.0089354 0.0139 0 0.02234-0.0050638 0.02234-0.013404 0-0.0093621 0.00943-0.013404 0.031276-0.013404 0.017201 0 0.031276-0.0040214 0.031276-0.0089354 0-0.013911 0.079966-0.010669 0.094466 0.0038296 0.00702 0.0070209 0.012766 0.021095 0.012766 0.031276 0 0.010496 0.0058 0.01851 0.013404 0.01851 0.00894 0 0.013404 0.0089354 0.013404 0.026808 0 0.014744 0.00431 0.026808 0.00957 0.026808 0.01577 0 0.035105 0.024258 0.035105 0.044041 0 0.010496 0.0058 0.01851 0.013404 0.01851 0.00737 0 0.013404 0.006032 0.013404 0.013404 0 0.007372 0.00402 0.013404 0.00894 0.013404s0.00894 0.010053 0.00894 0.02234c0 0.0139 0.00506 0.02234 0.013404 0.02234 0.00773 0 0.013404 0.008077 0.013404 0.019081 0 0.010494 0.010053 0.028398 0.02234 0.039785 0.012288 0.011387 0.02234 0.028938 0.02234 0.039002 0 0.010308 0.00585 0.018298 0.013404 0.018298 0.00773 0 0.013404 0.008077 0.013404 0.019081 0 0.010494 0.010053 0.028398 0.02234 0.039785 0.012288 0.011387 0.02234 0.027215 0.02234 0.035173 0 0.016404 0.020709 0.04 0.035106 0.04 0.00527 0 0.00957 0.010054 0.00957 0.02234 0 0.012286 0.00402 0.02234 0.00894 0.02234s0.00894 0.009159 0.00894 0.020354c0 0.038111 0.028447 0.051134 0.1117 0.051134 0.083251 0 0.1117-0.013023 0.1117-0.051134 0-0.011195 0.00402-0.020354 0.00894-0.020354s0.00894-0.010054 0.00894-0.02234c0-0.012288 0.00431-0.02234 0.00957-0.02234 0.014396 0 0.035106-0.023597 0.035106-0.04 0-0.007957 0.010053-0.023786 0.02234-0.035173 0.012288-0.011387 0.02234-0.02929 0.02234-0.039785 0-0.011004 0.00568-0.019081 0.013404-0.019081 0.00755 0 0.013404-0.007991 0.013404-0.018298 0-0.010064 0.010053-0.027615 0.02234-0.039002 0.012286-0.011387 0.02234-0.02929 0.02234-0.039785 0-0.011004 0.00568-0.019081 0.013404-0.019081 0.00737 0 0.013404-0.006032 0.013404-0.013404 0-0.007372 0.00402-0.013404 0.00894-0.013404s0.00894-0.010053 0.00894-0.02234c0-0.0139 0.00506-0.02234 0.013403-0.02234 0.0076 0 0.013404-0.008014 0.013404-0.01851 0-0.019784 0.019335-0.044041 0.035105-0.044041 0.00527 0 0.00957-0.012064 0.00957-0.026808 0-0.014744 0.00431-0.026808 0.00957-0.026808 0.015769 0 0.035105-0.024258 0.035105-0.044041 0-0.016255 0.00544-0.01851 0.04468-0.01851 0.024573 0 0.04468 0.0040214 0.04468 0.0089354 0 0.0049143 0.014075 0.0089354 0.031276 0.0089354 0.021843 0 0.031276 0.0040418 0.031276 0.013404 0 0.0083402 0.00844 0.013404 0.02234 0.013404 0.012286 0 0.02234 0.0040214 0.02234 0.0089354 0 0.0049143 0.016085 0.0089354 0.035744 0.0089354 0.025815 0 0.035744 0.0037238 0.035744 0.013404 0 0.0081812 0.00833 0.013404 0.021383 0.013404 0.011762 0 0.023699 0.006032 0.026528 0.013404 0.00283 0.007372 0.013313 0.013404 0.023296 0.013404 0.00998 0 0.018153 0.004021 0.018153 0.008935s0.016085 0.008935 0.035744 0.008935c0.025815 0 0.035743 0.003724 0.035743 0.013404 0 0.00834 0.00844 0.013404 0.02234 0.013404 0.012288 0 0.02234 0.004021 0.02234 0.008935 0 0.004916 0.016085 0.008935 0.035743 0.008935 0.025815 0 0.035743 0.003724 0.035743 0.013404 0 0.00834 0.00844 0.013404 0.02234 0.013404 0.012288 0 0.02234 0.004021 0.02234 0.008935 0 0.004916 0.010053 0.008935 0.02234 0.008935 0.0139 0 0.02234 0.005064 0.02234 0.013404 0 0.009619 0.00982 0.013404 0.034788 0.013404 0.022679 0 0.036578 0.004665 0.039932 0.013404 0.00283 0.007372 0.013313 0.013404 0.023295 0.013404 0.00998 0 0.018153 0.004021 0.018153 0.008935s0.016085 0.008935 0.035743 0.008935c0.025815 0 0.035744 0.003724 0.035744 0.013404 0 0.00834 0.00844 0.013404 0.02234 0.013404 0.012286 0 0.02234 0.004021 0.02234 0.008935s0.010054 0.008935 0.022339 0.008935c0.0139 0 0.02234 0.005064 0.02234 0.013404 0 0.00968 0.00993 0.013404 0.035744 0.013404h0.035743v0.039256c0 0.02665-0.0043 0.040907-0.013404 0.044399-0.00946 0.003632-0.013404 0.018383-0.013404 0.050104 0 0.024728-0.00402 0.04496-0.00894 0.04496s-0.00894 0.020106-0.00894 0.04468c0 0.033758-0.00328 0.04468-0.013404 0.04468-0.01054 0-0.013404 0.01241-0.013404 0.058084 0 0.032765-0.00389 0.058083-0.00894 0.058083-0.00492 0-0.00894 0.020106-0.00894 0.04468 0 0.033758-0.00328 0.04468-0.013404 0.04468-0.010088 0-0.013404 0.010815-0.013404 0.043723 0 0.030622-0.00402 0.045265-0.013404 0.048868-0.00986 0.003787-0.013404 0.019376-0.013404 0.05904 0 0.029974-0.00396 0.053896-0.00894 0.053896-0.00492 0-0.00894 0.016372-0.00894 0.036382 0 0.035096 0.015207 0.061913 0.035105 0.061913 0.00527 0 0.00957 0.00603 0.00957 0.013404 0 0.00737 0.00603 0.013404 0.013403 0.013404 0.00737 0 0.013404 0.00431 0.013404 0.00957 0 0.021704 0.027046 0.035106 0.070849 0.035106 0.024925 0 0.045318-0.00402 0.045318-0.00894s0.020232-0.00894 0.04496-0.00894c0.031721 0 0.046475-0.00395 0.050104-0.013404 0.0036-0.00939 0.018244-0.013404 0.048867-0.013404 0.032908 0 0.043724-0.00331 0.043724-0.013404 0-0.01054 0.01241-0.013404 0.058083-0.013404 0.032765 0 0.058084-0.00389 0.058084-0.00894 0-0.00492 0.020106-0.00894 0.04468-0.00894 0.033758 0 0.04468-0.00328 0.04468-0.013404 0-0.010128 0.010921-0.013404 0.04468-0.013404 0.024574 0 0.04468-0.00402 0.04468-0.00894 0-0.00504 0.025318-0.00894 0.058083-0.00894 0.045673 0 0.058084-0.00286 0.058084-0.013403 0-0.00936 0.00943-0.013404 0.031275-0.013404 0.027404 0 0.031276 0.00276 0.031276 0.02234 0 0.0139 0.00506 0.02234 0.013403 0.02234 0.00968 0 0.013404 0.00993 0.013404 0.035744 0 0.019659 0.00402 0.035744 0.00894 0.035744s0.00894 0.010053 0.00894 0.02234c0 0.0139 0.00506 0.02234 0.013404 0.02234 0.00968 0 0.013404 0.00993 0.013404 0.035743 0 0.019659 0.00402 0.035744 0.00894 0.035744s0.00894 0.00817 0.00894 0.018152c0 0.00998 0.00603 0.020467 0.013404 0.023296 0.00874 0.00336 0.013404 0.017252 0.013404 0.039931 0 0.024965 0.00379 0.034788 0.013404 0.034788 0.00834 0 0.013404 0.00844 0.013404 0.02234 0 0.012288 0.00402 0.02234 0.00894 0.02234s0.00894 0.010053 0.00894 0.02234c0 0.0139 0.00506 0.02234 0.013403 0.02234 0.00968 0 0.013404 0.00993 0.013404 0.035744 0 0.019659 0.00402 0.035744 0.00894 0.035744s0.00894 0.00817 0.00894 0.018152c0 0.00998 0.00603 0.020467 0.013404 0.023296 0.00821 0.00315 0.013403 0.016697 0.013403 0.034936 0 0.016386 0.00402 0.032278 0.00894 0.035315 0.00492 0.00303 0.00894 0.013454 0.00894 0.023148 0 0.00969 0.00603 0.01994 0.013404 0.022769 0.00737 0.00283 0.013404 0.014766 0.013404 0.026528 0 0.013049 0.00523 0.021383 0.013404 0.021383 0.00968 0 0.013404 0.00993 0.013404 0.035744 0 0.019659 0.00402 0.035744 0.00894 0.035744s0.00894 0.010053 0.00894 0.02234c0 0.0139 0.00506 0.02234 0.013404 0.02234 0.00936 0 0.013404 0.00943 0.013404 0.031275 0 0.017201 0.00402 0.031276 0.00894 0.031276 0.013911 0 0.010669 0.079967-0.00383 0.094466-0.00702 0.00702-0.021095 0.012766-0.031275 0.012766-0.010497 0-0.01851 0.0058-0.01851 0.013404 0 0.00813-0.0083 0.013404-0.021088 0.013404-0.012062 0-0.028268 0.00956-0.037865 0.02234-0.00924 0.012305-0.025859 0.02234-0.036995 0.02234-0.012015 0-0.020219 0.00544-0.020219 0.013404 0 0.00737-0.00603 0.013404-0.013404 0.013404-0.00737 0-0.013404 0.00402-0.013404 0.00894s-0.010053 0.00894-0.02234 0.00894c-0.0139 0-0.02234 0.00506-0.02234 0.013404 0 0.00773-0.00808 0.013404-0.019081 0.013404-0.010494 0-0.028398 0.010054-0.039785 0.02234s-0.028938 0.022339-0.039002 0.022339-0.018299 0.00431-0.018299 0.00957c0 0.015856-0.024303 0.035105-0.044322 0.035105-0.010335 0-0.021105 0.00603-0.023934 0.013404-0.00283 0.00737-0.013043 0.013404-0.022697 0.013404-0.018981 0-0.043086 0.019641-0.043086 0.035105 0 0.00527-0.010054 0.00957-0.02234 0.00957-0.012288 0-0.02234 0.00402-0.02234 0.00894s-0.00916 0.00894-0.020354 0.00894c-0.038111 0-0.051133 0.028448-0.051133 0.1117 0 0.083251 0.013023 0.1117 0.051133 0.1117 0.011195 0 0.020354 0.00402 0.020354 0.00894s0.010053 0.00894 0.02234 0.00894c0.012286 0 0.02234 0.00431 0.02234 0.00957 0 0.014396 0.023597 0.035105 0.04 0.035105 0.00796 0 0.023786 0.010053 0.035173 0.02234 0.011387 0.012286 0.02929 0.02234 0.039785 0.02234 0.011004 0 0.019082 0.00568 0.019082 0.013404 0 0.00755 0.00799 0.013403 0.018299 0.013403 0.010064 0 0.027615 0.010054 0.039002 0.02234 0.011387 0.012288 0.02929 0.02234 0.039785 0.02234 0.011004 0 0.019081 0.00568 0.019081 0.013404 0 0.00737 0.00603 0.013404 0.013404 0.013404 0.00737 0 0.013403 0.00402 0.013403 0.00894s0.010054 0.00894 0.02234 0.00894c0.0139 0 0.02234 0.00506 0.02234 0.013404 0 0.00797 0.0082 0.013404 0.020219 0.013404 0.011135 0 0.027756 0.010036 0.036995 0.02234 0.0096 0.012779 0.025802 0.02234 0.037865 0.02234 0.012789 0 0.021088 0.00528 0.021088 0.013404 0 0.0076 0.00801 0.013404 0.01851 0.013404 0.010181 0 0.024255 0.00574 0.031275 0.012764 0.014498 0.0145 0.017741 0.094466 0.00383 0.094466-0.00492 0-0.00894 0.014075-0.00894 0.031276 0 0.021843-0.00404 0.031276-0.013404 0.031276-0.00834 0-0.013404 0.00844-0.013404 0.02234 0 0.012288-0.00402 0.02234-0.00894 0.02234s-0.00894 0.016085-0.00894 0.035743c0 0.025815-0.00372 0.035744-0.013404 0.035744-0.00818 0-0.013404 0.00833-0.013404 0.021384 0 0.011762-0.00603 0.023698-0.013404 0.026527-0.00737 0.00283-0.013404 0.013313-0.013404 0.023296 0 0.00998-0.00402 0.018152-0.00894 0.018152s-0.00894 0.016085-0.00894 0.035744c0 0.025815-0.00372 0.035743-0.013404 0.035743-0.00834 0-0.013404 0.00844-0.013404 0.02234 0 0.012288-0.00402 0.02234-0.00894 0.02234s-0.00894 0.016085-0.00894 0.035743c0 0.025815-0.00372 0.035744-0.013404 0.035744-0.00834 0-0.013404 0.00844-0.013404 0.02234 0 0.012286-0.00402 0.02234-0.00894 0.02234s-0.00894 0.016085-0.00894 0.035743c0 0.025815-0.00372 0.035744-0.013404 0.035744-0.00818 0-0.013404 0.00833-0.013404 0.021384 0 0.011762-0.00603 0.023698-0.013403 0.026528-0.00737 0.00283-0.013404 0.013313-0.013404 0.023296 0 0.00998-0.00402 0.018153-0.00894 0.018153s-0.00894 0.016085-0.00894 0.035743c0 0.025815-0.00372 0.035743-0.013404 0.035743-0.00834 0-0.013404 0.00844-0.013404 0.02234 0 0.012288-0.00402 0.02234-0.00894 0.02234s-0.00894 0.016085-0.00894 0.035743c0 0.025815-0.00372 0.035744-0.013404 0.035744-0.00834 0-0.013404 0.00844-0.013404 0.02234 0 0.019574-0.00387 0.02234-0.031276 0.02234-0.021843 0-0.031276-0.00404-0.031276-0.013404 0-0.01054-0.01241-0.013403-0.058084-0.013403-0.032765 0-0.058083-0.00389-0.058083-0.00894 0-0.00492-0.020105-0.00894-0.04468-0.00894-0.033758 0-0.04468-0.00328-0.04468-0.013404 0-0.010128-0.010922-0.013404-0.04468-0.013404-0.024574 0-0.04468-0.00402-0.04468-0.00894 0-0.00504-0.025318-0.00894-0.058083-0.00894-0.045673 0-0.058083-0.00286-0.058083-0.013403 0-0.010088-0.010815-0.013404-0.043724-0.013404-0.030622 0-0.045265-0.00402-0.048867-0.013404-0.00379-0.00986-0.019376-0.013404-0.059039-0.013404-0.029974 0-0.053896-0.00396-0.053896-0.00894 0-0.00492-0.016372-0.00894-0.036382-0.00894-0.035096 0-0.061913 0.015207-0.061913 0.035106 0 0.00527-0.00603 0.00957-0.013404 0.00957-0.00737 0-0.013404 0.00603-0.013404 0.013404 0 0.00737-0.00431 0.013404-0.00957 0.013404-0.0199 0-0.035105 0.026817-0.035105 0.061913 0 0.02001 0.00402 0.036382 0.00894 0.036382 0.00497 0 0.00894 0.023922 0.00894 0.053896 0 0.039664 0.00354 0.055254 0.013404 0.059039 0.00939 0.0036 0.013404 0.018245 0.013404 0.048867 0 0.032908 0.00331 0.043723 0.013404 0.043723 0.010127 0 0.013404 0.010922 0.013404 0.04468 0 0.024573 0.00402 0.04468 0.00894 0.04468 0.00504 0 0.00894 0.025318 0.00894 0.058083 0 0.045673 0.00286 0.058083 0.013404 0.058083 0.010128 0 0.013404 0.010922 0.013404 0.04468 0 0.024573 0.00402 0.04468 0.00894 0.04468s0.00894 0.020232 0.00894 0.04496c0 0.031721 0.00395 0.046475 0.013404 0.050104 0.0091 0.00349 0.013404 0.017749 0.013404 0.044399 0 0.035915-0.0019 0.039256-0.02234 0.039256-0.0139 0-0.02234 0.00506-0.02234 0.013404 0 0.00968-0.00993 0.013404-0.035743 0.013404-0.019659 0-0.035744 0.00402-0.035744 0.00894s-0.010053 0.00894-0.02234 0.00894c-0.0139 0-0.02234 0.00506-0.02234 0.013404 0 0.00968-0.00993 0.013403-0.035744 0.013403-0.019659 0-0.035743 0.00402-0.035743 0.00894s-0.00817 0.00894-0.018153 0.00894c-0.00998 0-0.020467 0.00603-0.023295 0.013404-0.00336 0.00874-0.017252 0.013404-0.039932 0.013404-0.024965 0-0.034788 0.00379-0.034788 0.013403 0 0.00834-0.00844 0.013404-0.02234 0.013404-0.012288 0-0.02234 0.00402-0.02234 0.00894s-0.010054 0.00894-0.02234 0.00894c-0.0139 0-0.02234 0.00506-0.02234 0.013404 0 0.00968-0.00993 0.013404-0.035744 0.013404-0.019659 0-0.035743 0.00402-0.035743 0.00894s-0.010053 0.00894-0.02234 0.00894c-0.0139 0-0.02234 0.00506-0.02234 0.013403 0 0.00968-0.00993 0.013404-0.035743 0.013404-0.019659 0-0.035744 0.00402-0.035744 0.00894s-0.00817 0.00894-0.018153 0.00894c-0.00998 0-0.020467 0.00603-0.023296 0.013404-0.00283 0.00737-0.014766 0.013404-0.026528 0.013404-0.013052 0-0.021383 0.00523-0.021383 0.013403 0 0.00968-0.00993 0.013404-0.035743 0.013404-0.019659 0-0.035744 0.00402-0.035744 0.00894s-0.010053 0.00894-0.02234 0.00894c-0.0139 0-0.02234 0.00506-0.02234 0.013404 0 0.00936-0.00943 0.013404-0.031276 0.013404-0.017202 0-0.031276 0.00402-0.031276 0.00894s-0.020105 0.00894-0.04468 0.00894c-0.039236 0-0.04468-0.00226-0.04468-0.01851 0-0.019784-0.019336-0.044041-0.035105-0.044041-0.00527 0-0.00957-0.012064-0.00957-0.026808s-0.00431-0.026808-0.00957-0.026808c-0.01577 0-0.035105-0.024258-0.035105-0.044041 0-0.010497-0.0058-0.01851-0.013404-0.01851-0.00834 0-0.013404-0.00844-0.013404-0.02234 0-0.012286-0.00402-0.02234-0.00894-0.02234s-0.00894-0.00603-0.00894-0.013404c0-0.00737-0.00603-0.013404-0.013404-0.013404-0.00773 0-0.013404-0.00808-0.013404-0.019081 0-0.010494-0.010054-0.028398-0.02234-0.039785-0.012288-0.011387-0.02234-0.028938-0.02234-0.039002 0-0.010308-0.00585-0.018299-0.013404-0.018299-0.00773 0-0.013404-0.00808-0.013404-0.019081 0-0.010494-0.010053-0.028398-0.02234-0.039785-0.012286-0.011387-0.02234-0.027215-0.02234-0.035173 0-0.016403-0.020709-0.04-0.035106-0.04-0.00527 0-0.00957-0.010054-0.00957-0.02234 0-0.012288-0.00402-0.02234-0.00894-0.02234s-0.00894-0.00916-0.00894-0.020354c0-0.038111-0.028448-0.051133-0.1117-0.051133-0.083251 0-0.1117 0.013023-0.1117 0.051133 0 0.011195-0.00402 0.020354-0.00894 0.020354s-0.00894 0.010054-0.00894 0.02234-0.00431 0.02234-0.00957 0.02234c-0.015465 0-0.035106 0.024105-0.035106 0.043085 0 0.00966-0.00603 0.019869-0.013404 0.022697-0.00737 0.00283-0.013404 0.013599-0.013404 0.023935 0 0.02002-0.019249 0.044322-0.035106 0.044322-0.00527 0-0.00957 0.00823-0.00957 0.018299 0 0.010064-0.010054 0.027615-0.02234 0.039002-0.012288 0.011387-0.02234 0.02929-0.02234 0.039785 0 0.011004-0.00568 0.019081-0.013404 0.019081-0.00834 0-0.013404 0.00844-0.013404 0.02234 0 0.012286-0.00402 0.02234-0.00894 0.02234s-0.00894 0.00603-0.00894 0.013404c0 0.00737-0.00603 0.013404-0.013404 0.013404-0.00797 0-0.013404 0.0082-0.013404 0.020219 0 0.011137-0.010036 0.027755-0.02234 0.036995-0.012779 0.0096-0.02234 0.025802-0.02234 0.037865 0 0.012789-0.00528 0.021088-0.013404 0.021088-0.0076 0-0.013404 0.00801-0.013404 0.01851 0 0.010181-0.00574 0.024255-0.012766 0.031275-0.014499 0.0145-0.094466 0.017741-0.094466 0.00383zm-0.04468-0.38424c0-0.00492 0.00603-0.00894 0.013404-0.00894 0.00834 0 0.013404-0.00844 0.013404-0.02234 0-0.012286 0.00402-0.02234 0.00894-0.02234s0.00894-0.00603 0.00894-0.013404c0-0.00737 0.00603-0.013404 0.013404-0.013404 0.00818 0 0.013404-0.00833 0.013404-0.021383 0-0.011762 0.00603-0.023699 0.013404-0.026528 0.00737-0.00283 0.013404-0.013313 0.013404-0.023296 0-0.00998 0.00402-0.018152 0.00894-0.018152s0.00894-0.00603 0.00894-0.013404c0-0.00737 0.00603-0.013404 0.013404-0.013404 0.00797 0 0.013404-0.0082 0.013404-0.020219 0-0.011135 0.010036-0.027755 0.02234-0.036996 0.012779-0.0096 0.02234-0.025802 0.02234-0.037865 0-0.011598 0.00402-0.021088 0.00894-0.021088s0.00894-0.010053 0.00894-0.02234c0-0.012286 0.00398-0.022339 0.00883-0.022339 0.015692 0 0.044782-0.030314 0.044782-0.046666 0-0.00874 0.00402-0.015886 0.00894-0.015886s0.00894-0.00603 0.00894-0.013404c0-0.00737 0.00603-0.013404 0.013404-0.013404 0.00834 0 0.013404-0.00844 0.013404-0.02234 0-0.012286 0.00402-0.02234 0.00894-0.02234s0.00894-0.010054 0.00894-0.02234c0-0.022077 8.956e-4 -0.02234 0.075955-0.02234 0.04468 0 0.075955 0.00368 0.075955 0.00894 0 0.00546 0.041525 0.00894 0.1067 0.00894 0.061497 0 0.10904-0.00379 0.11223-0.00894 0.00304-0.00492 0.039466-0.00894 0.080951-0.00894 0.070338 0 0.075428 0.00124 0.075428 0.01851 0 0.019783 0.019336 0.044041 0.035106 0.044041 0.00527 0 0.00957 0.00982 0.00957 0.021812 0 0.011997 0.00402 0.024298 0.00894 0.027335 0.00492 0.00303 0.00894 0.012434 0.00894 0.020881 0 0.015931 0.029319 0.046139 0.044782 0.046139 0.00486 0 0.00883 0.010053 0.00883 0.022339 0 0.012288 0.00402 0.02234 0.00894 0.02234s0.00894 0.00603 0.00894 0.013404c0 0.00737 0.00603 0.013404 0.013404 0.013404 0.00834 0 0.013404 0.00844 0.013404 0.02234 0 0.012286 0.00402 0.02234 0.00894 0.02234s0.00894 0.010054 0.00894 0.02234c0 0.0139 0.00506 0.02234 0.013404 0.02234 0.00737 0 0.013404 0.00603 0.013404 0.013404 0 0.00737 0.00402 0.013404 0.00894 0.013404s0.00894 0.00723 0.00894 0.016057c0 0.00883 0.011894 0.025921 0.02643 0.037978 0.014536 0.012056 0.0266 0.030969 0.026808 0.042026 2.046e-4 0.011058 0.0044 0.020106 0.00931 0.020106 0.00492 0 0.00894 0.010054 0.00894 0.02234 0 0.0139 0.00506 0.02234 0.013404 0.02234 0.00737 0 0.013404 0.00402 0.013404 0.00894s0.016085 0.00894 0.035743 0.00894c0.019659 0 0.035744-0.00402 0.035744-0.00894s0.016085-0.00894 0.035743-0.00894c0.025815 0 0.035743-0.00372 0.035743-0.013404 0-0.00834 0.00844-0.013404 0.02234-0.013404 0.012288 0 0.02234-0.00402 0.02234-0.00894s0.0142-0.00894 0.031556-0.00894c0.019807 0 0.033472-0.00499 0.0367-0.013404 0.00283-0.00737 0.014766-0.013404 0.026527-0.013404 0.011762 0 0.021384-0.00402 0.021384-0.00894s0.010053-0.00894 0.02234-0.00894c0.0139 0 0.02234-0.00506 0.02234-0.013404 0-0.00968 0.00993-0.013403 0.035743-0.013403 0.025815 0 0.035744-0.00372 0.035744-0.013404 0-0.00834 0.00844-0.013404 0.02234-0.013404 0.012286 0 0.02234-0.00402 0.02234-0.00894s0.00603-0.00894 0.013404-0.00894c0.01029 0 0.013404-0.011418 0.013404-0.049147s-0.00312-0.049148-0.013404-0.049148c-0.01029 0-0.013404-0.011418-0.013404-0.049148 0-0.037729-0.00312-0.049148-0.013404-0.049148-0.010127 0-0.013403-0.010922-0.013403-0.04468 0-0.024574-0.00402-0.04468-0.00894-0.04468-0.00504 0-0.00894-0.025318-0.00894-0.058084 0-0.045673-0.00286-0.058084-0.013404-0.058084-0.010127 0-0.013404-0.010922-0.013404-0.04468 0-0.024574-0.00402-0.04468-0.00894-0.04468s-0.00894-0.020106-0.00894-0.04468c0-0.033758-0.00328-0.04468-0.013404-0.04468-0.010128 0-0.013404-0.010922-0.013404-0.04468 0-0.025815 0.00404-0.04468 0.00957-0.04468 0.012371 0 0.035106-0.022734 0.035106-0.035106 0-0.00527 0.00603-0.00957 0.013404-0.00957 0.00737 0 0.013404-0.00431 0.013404-0.00957 0-0.00527 0.00574-0.015318 0.012764-0.02234 0.00702-0.00702 0.017074-0.012766 0.02234-0.012766 0.00527 0 0.00957-0.00603 0.00957-0.013404 0-0.00737 0.00431-0.013404 0.00957-0.013404 0.012371 0 0.035105-0.022733 0.035105-0.035105 0-0.00527 0.00431-0.00957 0.00957-0.00957 0.012371 0 0.035106-0.022734 0.035106-0.035106 0-0.00527 0.00603-0.00957 0.013404-0.00957 0.00737 0 0.013404-0.00431 0.013404-0.00957 0-0.012371 0.022733-0.035106 0.035105-0.035106 0.00527 0 0.00957-0.00603 0.00957-0.013404 0-0.00737 0.00431-0.013404 0.00957-0.013404 0.012371 0 0.035105-0.022733 0.035105-0.035105 0-0.00553 0.018865-0.00957 0.04468-0.00957 0.033758 0 0.04468 0.00328 0.04468 0.013404 0 0.010128 0.010921 0.013404 0.04468 0.013404 0.024574 0 0.04468 0.00402 0.04468 0.00894 0 0.00504 0.025318 0.00894 0.058084 0.00894 0.045673 0 0.058084 0.00286 0.058084 0.013404 0 0.010127 0.010922 0.013404 0.04468 0.013404 0.024573 0 0.04468 0.00402 0.04468 0.00894s0.020106 0.00894 0.04468 0.00894c0.033758 0 0.04468 0.00328 0.04468 0.013403 0 0.010516 0.012305 0.013404 0.057127 0.013404 0.042537 0 0.058441 0.00342 0.062271 0.013404 0.0072 0.018762 0.077192 0.018762 0.077192 0 0-0.00737 0.00402-0.013404 0.00894-0.013404s0.00894-0.010053 0.00894-0.02234c0-0.0139 0.00506-0.02234 0.013404-0.02234 0.00962 0 0.013404-0.00982 0.013404-0.034788 0-0.022679 0.00467-0.036578 0.013404-0.039932 0.00737-0.00283 0.013404-0.013313 0.013404-0.023296 0-0.00998 0.00402-0.018152 0.00894-0.018152s0.00894-0.010054 0.00894-0.02234c0-0.0139 0.00506-0.02234 0.013404-0.02234 0.00968 0 0.013404-0.00993 0.013404-0.035743 0-0.019659 0.00402-0.035744 0.00894-0.035744s0.00894-0.010053 0.00894-0.02234c0-0.0139 0.00506-0.02234 0.013403-0.02234 0.00968 0 0.013404-0.00993 0.013404-0.035744 0-0.019659 0.00402-0.035743 0.00894-0.035743s0.00894-0.016085 0.00894-0.035743c0-0.019659-0.00402-0.035744-0.00894-0.035744s-0.00894-0.00603-0.00894-0.013403c0-0.00834-0.00844-0.013404-0.02234-0.013404-0.012288 0-0.02234-0.00402-0.02234-0.00894s-0.00603-0.00894-0.013404-0.00894c-0.00737 0-0.013404-0.00603-0.013404-0.013404 0-0.00818-0.00833-0.013403-0.021384-0.013403-0.011762 0-0.023699-0.00603-0.026528-0.013404-0.00283-0.00737-0.013313-0.013404-0.023296-0.013404-0.00998 0-0.018153-0.00402-0.018153-0.00894s-0.00603-0.00894-0.013404-0.00894c-0.00737 0-0.013404-0.00603-0.013404-0.013404 0-0.00797-0.0082-0.013404-0.020219-0.013404-0.011137 0-0.027756-0.010036-0.036995-0.02234-0.0096-0.012779-0.025802-0.02234-0.037865-0.02234-0.011598 0-0.021088-0.00402-0.021088-0.00894s-0.010053-0.00894-0.02234-0.00894c-0.012288 0-0.02234-0.00398-0.02234-0.00883 0-0.015691-0.030314-0.044782-0.046666-0.044782-0.00874 0-0.015886-0.00402-0.015886-0.00894s-0.00603-0.00894-0.013404-0.00894c-0.00737 0-0.013404-0.00603-0.013404-0.013404 0-0.00834-0.00844-0.013404-0.02234-0.013404-0.012288 0-0.02234-0.00402-0.02234-0.00894s-0.010053-0.00894-0.02234-0.00894c-0.022077 0-0.02234-8.957e-4 -0.02234-0.075955 0-0.04468 0.00368-0.075956 0.00894-0.075956 0.00546 0 0.00894-0.041525 0.00894-0.1067 0-0.061497-0.00379-0.10904-0.00894-0.11223-0.00492-0.00303-0.00894-0.039466-0.00894-0.080951 0-0.070338 0.00124-0.075428 0.01851-0.075428 0.019783 0 0.044041-0.019336 0.044041-0.035106 0-0.00527 0.00982-0.00957 0.021812-0.00957 0.011998 0 0.024298-0.00402 0.027335-0.00894 0.00303-0.00492 0.012434-0.00894 0.020881-0.00894 0.015931 0 0.046138-0.029319 0.046138-0.044782 0-0.00486 0.010053-0.00883 0.02234-0.00883 0.012288 0 0.02234-0.00402 0.02234-0.00894s0.00949-0.00894 0.021088-0.00894c0.012062 0 0.028268-0.00956 0.037865-0.02234 0.00924-0.012303 0.025859-0.02234 0.036995-0.02234 0.012015 0 0.020219-0.00544 0.020219-0.013404 0-0.00737 0.00603-0.013404 0.013404-0.013404 0.00737 0 0.013404-0.00402 0.013404-0.00894s0.00817-0.00894 0.018153-0.00894c0.00998 0 0.020467-0.00603 0.023296-0.013404 0.00283-0.00737 0.014766-0.013404 0.026528-0.013404 0.013052 0 0.021384-0.00523 0.021384-0.013404 0-0.00737 0.00603-0.013404 0.013404-0.013404 0.00737 0 0.013404-0.00402 0.013404-0.00894s0.010053-0.00894 0.02234-0.00894c0.0139 0 0.02234-0.00506 0.02234-0.013404 0-0.00737 0.00402-0.013404 0.00894-0.013404s0.00894-0.016085 0.00894-0.035744-0.00402-0.035743-0.00894-0.035743-0.00894-0.016085-0.00894-0.035744c0-0.025815-0.00372-0.035744-0.013404-0.035744-0.00834 0-0.013403-0.00844-0.013403-0.02234 0-0.012286-0.00402-0.022339-0.00894-0.022339s-0.00894-0.0142-0.00894-0.031556c0-0.019807-0.00499-0.033472-0.013404-0.0367-0.00737-0.00283-0.013404-0.014766-0.013404-0.026528s-0.00402-0.021383-0.00894-0.021383-0.00894-0.010053-0.00894-0.02234c0-0.0139-0.00506-0.02234-0.013404-0.02234-0.00968 0-0.013404-0.00993-0.013404-0.035744 0-0.025815-0.00372-0.035743-0.013404-0.035743-0.00742 0-0.013404-0.00793-0.013404-0.01777 0-0.00977-0.00693-0.025858-0.015389-0.035744-0.018584-0.021704-0.071925-0.024763-0.079674-0.00457-0.00383 0.00998-0.019735 0.013404-0.062271 0.013404-0.044823 0-0.057127 0.00288-0.057127 0.013404 0 0.010128-0.010921 0.013404-0.04468 0.013404-0.024573 0-0.04468 0.00402-0.04468 0.00894s-0.020106 0.00894-0.04468 0.00894c-0.033758 0-0.04468 0.00328-0.04468 0.013404 0 0.01054-0.01241 0.013404-0.058084 0.013404-0.032765 0-0.058084 0.00389-0.058084 0.00894 0 0.00492-0.020106 0.00894-0.04468 0.00894-0.033758 0-0.04468 0.00328-0.04468 0.013404 0 0.010128-0.010921 0.013404-0.04468 0.013404-0.025815 0-0.04468-0.00404-0.04468-0.00957 0-0.012371-0.022733-0.035105-0.035105-0.035105-0.00527 0-0.00957-0.00603-0.00957-0.013404 0-0.00737-0.00431-0.013404-0.00957-0.013404-0.012371 0-0.035105-0.022734-0.035105-0.035106 0-0.00527-0.00603-0.00957-0.013404-0.00957-0.00737 0-0.013404-0.00431-0.013404-0.00957 0-0.012371-0.022734-0.035105-0.035106-0.035105-0.00527 0-0.00957-0.00431-0.00957-0.00957 0-0.012371-0.022734-0.035105-0.035105-0.035105-0.00527 0-0.00957-0.00603-0.00957-0.013404 0-0.00737-0.00431-0.013404-0.00957-0.013404-0.012371 0-0.035105-0.022734-0.035105-0.035106 0-0.00527-0.00603-0.00957-0.013404-0.00957-0.00737 0-0.013404-0.00431-0.013404-0.00957 0-0.012371-0.022734-0.035105-0.035106-0.035105-0.00553 0-0.00957-0.018865-0.00957-0.04468 0-0.033758 0.00328-0.04468 0.013404-0.04468 0.010127 0 0.013404-0.010922 0.013404-0.04468 0-0.024573 0.00402-0.04468 0.00894-0.04468s0.00894-0.020106 0.00894-0.04468c0-0.033758 0.00328-0.04468 0.013404-0.04468 0.01054 0 0.013404-0.01241 0.013404-0.058083 0-0.032765 0.00389-0.058084 0.00894-0.058084 0.00492 0 0.00894-0.020106 0.00894-0.04468 0-0.033758 0.00328-0.04468 0.013404-0.04468 0.01029 0 0.013404-0.011418 0.013404-0.049148 0-0.037729 0.00312-0.049148 0.013404-0.049148 0.01029 0 0.013404-0.011418 0.013404-0.049148s-0.00312-0.049148-0.013404-0.049148c-0.00737 0-0.013404-0.00402-0.013404-0.008936s-0.010053-0.008936-0.02234-0.008936c-0.0139 0-0.02234-0.005064-0.02234-0.013404 0-0.009619-0.00982-0.013404-0.034788-0.013404-0.022679 0-0.036578-0.004669-0.039931-0.013404-0.00283-0.007372-0.013313-0.013404-0.023295-0.013404-0.00998 0-0.018153-0.00402-0.018153-0.008936s-0.016085-0.008936-0.035744-0.008936c-0.025815 0-0.035743-0.003724-0.035743-0.013404 0-0.00834-0.00844-0.013404-0.02234-0.013404-0.012286 0-0.02234-0.00402-0.02234-0.008936s-0.010053-0.008936-0.02234-0.008936c-0.0139 0-0.02234-0.005064-0.02234-0.013404 0-0.00968-0.00993-0.013404-0.035743-0.013404-0.019659 0-0.035743-0.00402-0.035743-0.008936s-0.016085-0.008936-0.035744-0.008936-0.035743 0.00402-0.035743 0.008936-0.00603 0.008936-0.013404 0.008936c-0.00834 0-0.013404 0.008439-0.013404 0.02234 0 0.012288-0.00402 0.02234-0.00894 0.02234s-0.00911 0.009047-0.00932 0.020106c-2.047e-4 0.011058-0.012272 0.02997-0.026808 0.042026-0.014536 0.012056-0.02643 0.029146-0.02643 0.037978 0 0.008831-0.00402 0.016057-0.00894 0.016057s-0.00894 0.00603-0.00894 0.013404c0 0.007372-0.00603 0.013404-0.013404 0.013404-0.00834 0-0.013404 0.008439-0.013404 0.02234 0 0.012288-0.00402 0.02234-0.00894 0.02234s-0.00894 0.010054-0.00894 0.02234c0 0.0139-0.00506 0.02234-0.013404 0.02234-0.00737 0-0.013404 0.00603-0.013404 0.013404 0 0.007372-0.00402 0.013404-0.00894 0.013404s-0.00894 0.010054-0.00894 0.02234c0 0.012288-0.00398 0.02234-0.00883 0.02234-0.015692 0-0.044782 0.030314-0.044782 0.046666 0 0.008737-0.00402 0.015886-0.00894 0.015886s-0.00894 0.012064-0.00894 0.026808c0 0.014744-0.00431 0.026808-0.00957 0.026808-0.01577 0-0.035106 0.024258-0.035106 0.044041 0 0.017489-0.00493 0.01851-0.089359 0.01851-0.053616 0-0.089359-0.003576-0.089359-0.008936 0-0.005332-0.034255-0.008936-0.084892-0.008936s-0.084891 0.003604-0.084891 0.008936c0 0.00536-0.035744 0.008936-0.089359 0.008936-0.084429 0-0.089359-0.001023-0.089359-0.01851 0-0.019783-0.019336-0.044041-0.035106-0.044041-0.00527 0-0.00957-0.009816-0.00957-0.021812 0-0.011996-0.00402-0.024298-0.00894-0.027335-0.00492-0.00304-0.00894-0.012434-0.00894-0.020881 0-0.015931-0.029319-0.046138-0.044782-0.046138-0.00486 0-0.00883-0.010054-0.00883-0.02234 0-0.012288-0.00402-0.02234-0.00894-0.02234s-0.00894-0.00603-0.00894-0.013404c0-0.007372-0.00603-0.013404-0.013404-0.013404-0.00834 0-0.013404-0.008439-0.013404-0.02234 0-0.012288-0.00402-0.02234-0.00894-0.02234s-0.00894-0.010054-0.00894-0.02234c0-0.0139-0.00506-0.02234-0.013404-0.02234-0.00737 0-0.013404-0.00603-0.013404-0.013404 0-0.007372-0.00402-0.013404-0.00894-0.013404s-0.00894-0.008168-0.00894-0.018152-0.00603-0.020467-0.013404-0.023296c-0.00737-0.002828-0.013404-0.014766-0.013404-0.026528 0-0.013051-0.00523-0.021384-0.013404-0.021384-0.00737 0-0.013404-0.00603-0.013404-0.013404 0-0.007372-0.00402-0.013404-0.00894-0.013404s-0.00894-0.010054-0.00894-0.02234c0-0.0139-0.00506-0.02234-0.013404-0.02234-0.00737 0-0.013404-0.00402-0.013404-0.008936s-0.016085-0.008936-0.035744-0.008936-0.035744 0.00402-0.035744 0.008936-0.016085 0.008936-0.035743 0.008936c-0.025815 0-0.035744 0.003724-0.035744 0.013404 0 0.00834-0.00844 0.013404-0.02234 0.013404-0.012288 0-0.02234 0.00402-0.02234 0.008936s-0.010053 0.008936-0.02234 0.008936c-0.0139 0-0.02234 0.005064-0.02234 0.013404 0 0.00968-0.00993 0.013404-0.035744 0.013404-0.019659 0-0.035744 0.00402-0.035744 0.008936s-0.010054 0.008936-0.02234 0.008936c-0.0139 0-0.02234 0.005064-0.02234 0.013404 0 0.00968-0.00993 0.013404-0.035744 0.013404-0.025815 0-0.035743 0.003724-0.035743 0.013404 0 0.007421-0.00793 0.013404-0.01777 0.013404-0.00977 0-0.025858 0.006926-0.035744 0.01539-0.021704 0.018584-0.024764 0.071925-0.00457 0.079674 0.00998 0.00383 0.013404 0.019735 0.013404 0.062271 0 0.044823 0.00288 0.057128 0.013404 0.057128 0.010128 0 0.013404 0.010922 0.013404 0.04468 0 0.024574 0.00402 0.04468 0.00894 0.04468s0.00894 0.020106 0.00894 0.04468c0 0.033758 0.00328 0.04468 0.013404 0.04468 0.01029 0 0.013404 0.011418 0.013404 0.049148 0 0.027031 0.00402 0.049148 0.00894 0.049148 0.00497 0 0.00894 0.023829 0.00894 0.053616 0 0.041701 0.00298 0.053616 0.013404 0.053616 0.010425 0 0.013404 0.011915 0.013404 0.053615 0 0.051233-9.944e-4 0.053615-0.02234 0.053615-0.0139 0-0.02234 0.00506-0.02234 0.013404 0 0.00737-0.00603 0.013404-0.013404 0.013404-0.00737 0-0.013404 0.00431-0.013404 0.00957 0 0.012371-0.022734 0.035106-0.035106 0.035106-0.00527 0-0.00957 0.00603-0.00957 0.013404 0 0.00737-0.00431 0.013404-0.00957 0.013404-0.012371 0-0.035106 0.022733-0.035106 0.035105 0 0.00527-0.00431 0.00957-0.00957 0.00957-0.012371 0-0.035106 0.022733-0.035106 0.035105 0 0.00527-0.00603 0.00957-0.013404 0.00957-0.00737 0-0.013404 0.00431-0.013404 0.00957 0 0.012371-0.022734 0.035106-0.035106 0.035106-0.00527 0-0.00957 0.00603-0.00957 0.013403 0 0.00737-0.00603 0.013404-0.013404 0.013404-0.00834 0-0.013404 0.00844-0.013404 0.02234 0 0.021347-0.00238 0.02234-0.053616 0.02234-0.041701 0-0.053615-0.00298-0.053615-0.013404 0-0.010128-0.010922-0.013404-0.04468-0.013404-0.024573 0-0.04468-0.00402-0.04468-0.00894 0-0.00504-0.025318-0.00894-0.058084-0.00894-0.045673 0-0.058084-0.00286-0.058084-0.013404 0-0.010127-0.010922-0.013404-0.04468-0.013404-0.024574 0-0.04468-0.00402-0.04468-0.00894s-0.020106-0.00894-0.04468-0.00894c-0.033758 0-0.04468-0.00328-0.04468-0.013404 0-0.010516-0.012305-0.013404-0.057128-0.013404-0.042536 0-0.058441-0.00342-0.062271-0.013404-0.00775-0.020194-0.06109-0.017134-0.079674 0.00457-0.008465 0.00989-0.01539 0.025971-0.01539 0.035744 0 0.00984-0.005981 0.01777-0.013404 0.01777-0.009618 0-0.013404 0.00982-0.013404 0.034788 0 0.022679-0.004669 0.036578-0.013404 0.039931-0.007372 0.00283-0.013404 0.013313-0.013404 0.023296 0 0.00998-0.00402 0.018152-0.008936 0.018152s-0.008936 0.016085-0.008936 0.035744c0 0.025815-0.003724 0.035744-0.013404 0.035744-0.00834 0-0.013404 0.00844-0.013404 0.02234 0 0.012286-0.00402 0.02234-0.008936 0.02234s-0.008936 0.016085-0.008936 0.035744c0 0.025815-0.003724 0.035743-0.013404 0.035743-0.00834 0-0.013404 0.00844-0.013404 0.02234 0 0.012286-0.00402 0.02234-0.008936 0.02234s-0.008936 0.016085-0.008936 0.035743c0 0.019659 0.00402 0.035744 0.008936 0.035744s0.008936 0.00603 0.008936 0.013404c0 0.00834 0.008439 0.013404 0.02234 0.013404 0.012288 0 0.02234 0.00402 0.02234 0.00894s0.009047 0.00911 0.020106 0.00932c0.011058 2.047e-4 0.02997 0.012271 0.042026 0.026808 0.012056 0.014536 0.029146 0.026429 0.037978 0.026429 0.008831 0 0.016057 0.00402 0.016057 0.00894s0.00603 0.00894 0.013404 0.00894c0.007372 0 0.013404 0.00603 0.013404 0.013404 0 0.00834 0.008439 0.013404 0.02234 0.013404 0.012288 0 0.02234 0.00402 0.02234 0.00894s0.010054 0.00894 0.02234 0.00894c0.0139 0 0.02234 0.00506 0.02234 0.013404 0 0.00737 0.00603 0.013404 0.013404 0.013404 0.007372 0 0.013404 0.00402 0.013404 0.00894s0.010054 0.00894 0.02234 0.00894c0.012288 0 0.02234 0.00398 0.02234 0.00883 0 0.015691 0.030314 0.044782 0.046666 0.044782 0.008737 0 0.015886 0.00402 0.015886 0.00894s0.00603 0.00894 0.013404 0.00894c0.007372 0 0.013404 0.00603 0.013404 0.013404 0 0.00834 0.008439 0.013404 0.02234 0.013404 0.012286 0 0.02234 0.00402 0.02234 0.00894s0.010054 0.00894 0.02234 0.00894h0.02234v0.089359c0 0.053616-0.003576 0.089359-0.008936 0.089359-0.005332 0-0.008936 0.034254-0.008936 0.084892 0 0.050637 0.003604 0.084891 0.008936 0.084891 0.00536 0 0.008936 0.035743 0.008936 0.089359 0 0.084429-0.001023 0.089359-0.01851 0.089359-0.019783 0-0.044041 0.019336-0.044041 0.035106 0 0.00527-0.009816 0.00957-0.021812 0.00957-0.011996 0-0.024298 0.00402-0.027335 0.00894-0.00304 0.00492-0.012434 0.00894-0.020881 0.00894-0.015931 0-0.046138 0.029319-0.046138 0.044782 0 0.00486-0.010054 0.00883-0.02234 0.00883-0.012288 0-0.02234 0.00402-0.02234 0.00894s-0.00603 0.00894-0.013404 0.00894c-0.007372 0-0.013404 0.00603-0.013404 0.013403 0 0.00834-0.008439 0.013404-0.02234 0.013404-0.012288 0-0.02234 0.00402-0.02234 0.00894s-0.010054 0.00894-0.02234 0.00894c-0.0139 0-0.02234 0.00506-0.02234 0.013404 0 0.00737-0.00603 0.013404-0.013404 0.013404-0.007372 0-0.013404 0.00402-0.013404 0.00894s-0.007225 0.00894-0.016057 0.00894c-0.008831 0-0.025921 0.011892-0.037978 0.026429-0.012056 0.014536-0.030968 0.0266-0.042026 0.026808-0.011058 2.047e-4 -0.020106 0.0044-0.020106 0.00932s-0.010054 0.00894-0.02234 0.00894c-0.0139 0-0.02234 0.00506-0.02234 0.013404 0 0.00737-0.00402 0.013403-0.008936 0.013403s-0.008936 0.016085-0.008936 0.035744 0.00402 0.035743 0.008936 0.035743 0.008936 0.016085 0.008936 0.035743c0 0.025815 0.003724 0.035744 0.013404 0.035744 0.00834 0 0.013404 0.00844 0.013404 0.02234 0 0.012286 0.00402 0.02234 0.008936 0.02234s0.008936 0.010053 0.008936 0.02234c0 0.0139 0.005064 0.02234 0.013404 0.02234 0.00968 0 0.013404 0.00993 0.013404 0.035743 0 0.019659 0.00402 0.035744 0.008936 0.035744s0.008936 0.010053 0.008936 0.02234c0 0.0139 0.005064 0.022339 0.013404 0.022339 0.00968 0 0.013404 0.00993 0.013404 0.035744 0 0.025815 0.003724 0.035743 0.013404 0.035743 0.007421 0 0.013404 0.00793 0.013404 0.01777 0 0.033815 0.027222 0.053718 0.073473 0.053718 0.031993 0 0.042694-0.00336 0.042694-0.013404 0-0.01029 0.011418-0.013404 0.049148-0.013404s0.049148-0.00312 0.049148-0.013404c0-0.010127 0.010922-0.013404 0.04468-0.013404 0.024574 0 0.04468-0.00402 0.04468-0.00894 0-0.00504 0.025319-0.00894 0.058084-0.00894 0.045673 0 0.058084-0.00286 0.058084-0.013404 0-0.010128 0.010922-0.013404 0.04468-0.013404 0.024574 0 0.04468-0.00402 0.04468-0.00894s0.020106-0.00894 0.04468-0.00894c0.033758 0 0.04468-0.00328 0.04468-0.013404 0-0.010127 0.010921-0.013404 0.04468-0.013404 0.025815 0 0.04468 0.00404 0.04468 0.00957 0 0.012371 0.022734 0.035105 0.035106 0.035105 0.00527 0 0.00957 0.00603 0.00957 0.013403 0 0.00737 0.00431 0.013404 0.00957 0.013404 0.012371 0 0.035106 0.022734 0.035106 0.035106 0 0.00527 0.00603 0.00957 0.013404 0.00957 0.00737 0 0.013404 0.00431 0.013404 0.00957 0 0.012371 0.022734 0.035106 0.035106 0.035106 0.00527 0 0.00957 0.00431 0.00957 0.00957 0 0.012371 0.022734 0.035105 0.035106 0.035105 0.00527 0 0.00957 0.00603 0.00957 0.013404 0 0.00737 0.00431 0.013404 0.00957 0.013404 0.012371 0 0.035106 0.022734 0.035106 0.035106 0 0.00527 0.00603 0.00957 0.013404 0.00957 0.00737 0 0.013404 0.00603 0.013404 0.013404 0 0.00834 0.00844 0.013404 0.02234 0.013404 0.021347 0 0.02234 0.00238 0.02234 0.053616 0 0.041701-0.00298 0.053615-0.013404 0.053615-0.010425 0-0.013404 0.011915-0.013404 0.053615 0 0.029786-0.00397 0.053615-0.00894 0.053615-0.00492 0-0.00894 0.022116-0.00894 0.049147 0 0.037729-0.00312 0.049148-0.013404 0.049148-0.010128 0-0.013404 0.010922-0.013404 0.04468 0 0.024574-0.00402 0.04468-0.00894 0.04468s-0.00894 0.020106-0.00894 0.04468c0 0.033758-0.00328 0.04468-0.013404 0.04468-0.010516 0-0.013404 0.012305-0.013404 0.057127 0 0.042536-0.00342 0.058441-0.013404 0.062271-0.00885 0.00339-0.013404 0.01739-0.013404 0.041168 0 0.026064 0.00371 0.036025 0.013404 0.036025 0.00737 0 0.013404 0.00402 0.013404 0.00894s0.010054 0.00894 0.02234 0.00894c0.0139 0 0.02234 0.00506 0.02234 0.013404 0 0.00962 0.00982 0.013404 0.034788 0.013404 0.022679 0 0.036578 0.00467 0.039931 0.013404 0.00283 0.00737 0.013313 0.013404 0.023296 0.013404 0.00998 0 0.018152 0.00402 0.018152 0.00894s0.016085 0.00894 0.035744 0.00894c0.025815 0 0.035744 0.00372 0.035744 0.013404 0 0.00834 0.00844 0.013404 0.02234 0.013404 0.012288 0 0.02234 0.00402 0.02234 0.00894s0.010053 0.00894 0.02234 0.00894c0.0139 0 0.02234 0.00506 0.02234 0.013404 0 0.00968 0.00993 0.013404 0.035744 0.013404 0.019659 0 0.035743 0.00402 0.035743 0.00894s0.016085 0.00894 0.035744 0.00894 0.035744-0.00402 0.035744-0.00894zm0.41999-1.1795c0-0.00504-0.025319-0.00894-0.058084-0.00894-0.045673 0-0.058084-0.00286-0.058084-0.013404 0-0.00968-0.00993-0.013404-0.035744-0.013404-0.019659 0-0.035744-0.00402-0.035744-0.00894s-0.010053-0.00894-0.02234-0.00894c-0.0139 0-0.02234-0.00506-0.02234-0.013404 0-0.00818-0.00833-0.013404-0.021384-0.013404-0.011762 0-0.023698-0.00603-0.026527-0.013404-0.00283-0.00737-0.013313-0.013404-0.023296-0.013404-0.00998 0-0.018152-0.00402-0.018152-0.00894s-0.00603-0.00894-0.013404-0.00894c-0.00737 0-0.013404-0.00603-0.013404-0.013404 0-0.00834-0.00844-0.013404-0.02234-0.013404-0.012288 0-0.02234-0.00402-0.02234-0.00894s-0.00603-0.00894-0.013404-0.00894c-0.00737 0-0.013404-0.00431-0.013404-0.00957 0-0.012371-0.022734-0.035105-0.035106-0.035105-0.00527 0-0.00957-0.00603-0.00957-0.013404 0-0.00834-0.00844-0.013403-0.02234-0.013403-0.017872 0-0.02234-0.00447-0.02234-0.02234 0-0.0139-0.00506-0.02234-0.013404-0.02234-0.00737 0-0.013404-0.00431-0.013404-0.00957 0-0.012371-0.022734-0.035106-0.035106-0.035106-0.00527 0-0.00957-0.00603-0.00957-0.013404 0-0.00737-0.00402-0.013404-0.00894-0.013404s-0.00894-0.010053-0.00894-0.022339c0-0.012288-0.00458-0.02234-0.010185-0.02234-0.01382 0-0.033862-0.027648-0.034211-0.047195-1.554e-4 -0.00875-0.00631-0.018233-0.013689-0.021062-0.00737-0.00283-0.013404-0.014766-0.013404-0.026527 0-0.013051-0.00523-0.021384-0.013404-0.021384-0.00834 0-0.013404-0.00844-0.013404-0.02234 0-0.012288-0.00402-0.02234-0.00894-0.02234s-0.00894-0.016085-0.00894-0.035744c0-0.025815-0.00372-0.035743-0.013404-0.035743-0.01054 0-0.013404-0.01241-0.013404-0.058083 0-0.032765-0.00389-0.058084-0.00894-0.058084-0.00564 0-0.00894-0.061062-0.00894-0.16531s0.0033-0.16532 0.00894-0.16532c0.00504 0 0.00894-0.025318 0.00894-0.058084 0-0.045673 0.00286-0.058084 0.013404-0.058084 0.00968 0 0.013404-0.00993 0.013404-0.035744 0-0.019659 0.00402-0.035744 0.00894-0.035744s0.00894-0.010054 0.00894-0.02234c0-0.0139 0.00506-0.022339 0.013404-0.022339 0.00818 0 0.013404-0.00833 0.013404-0.021384 0-0.011762 0.00603-0.023699 0.013404-0.026528 0.00737-0.00283 0.013404-0.013313 0.013404-0.023296 0-0.00998 0.00402-0.018152 0.00894-0.018152s0.00894-0.00603 0.00894-0.013404c0-0.00737 0.00603-0.013404 0.013404-0.013404 0.00834 0 0.013404-0.00844 0.013404-0.02234 0-0.012288 0.00402-0.02234 0.00894-0.02234s0.00894-0.00603 0.00894-0.013404c0-0.00737 0.00431-0.013404 0.00957-0.013404 0.012371 0 0.035106-0.022734 0.035106-0.035106 0-0.00527 0.00433-0.00957 0.00962-0.00957 0.012506 0 0.061864-0.049358 0.061864-0.061864 0-0.0053 0.00431-0.00962 0.00957-0.00962 0.012371 0 0.035106-0.022733 0.035106-0.035105 0-0.00527 0.00603-0.00957 0.013404-0.00957 0.00737 0 0.013404-0.00402 0.013404-0.00894s0.010053-0.00894 0.02234-0.00894c0.012286 0 0.02234-0.00458 0.02234-0.010184 0-0.01382 0.027648-0.033862 0.047194-0.034211 0.00875-1.732e-4 0.018233-0.00631 0.021062-0.013687 0.00283-0.00737 0.014766-0.013404 0.026528-0.013404 0.013051 0 0.021383-0.00523 0.021383-0.013404 0-0.00834 0.00844-0.013404 0.02234-0.013404 0.012288 0 0.02234-0.00402 0.02234-0.00894s0.016085-0.00894 0.035744-0.00894c0.025815 0 0.035744-0.00372 0.035744-0.013404 0-0.01054 0.012411-0.013404 0.058084-0.013404 0.032765 0 0.058084-0.00389 0.058084-0.00894 0-0.00564 0.061062-0.00894 0.16531-0.00894s0.16531 0.0033 0.16531 0.00894c0 0.00504 0.025318 0.00894 0.058084 0.00894 0.045673 0 0.058084 0.00286 0.058084 0.013404 0 0.00968 0.00993 0.013404 0.035744 0.013404 0.019659 0 0.035743 0.00402 0.035743 0.00894s0.010054 0.00894 0.02234 0.00894c0.0139 0 0.02234 0.00506 0.02234 0.013404 0 0.00818 0.00833 0.013404 0.021383 0.013404 0.011762 0 0.023699 0.00603 0.026528 0.013404 0.00283 0.00737 0.013313 0.013404 0.023296 0.013404 0.00998 0 0.018153 0.00402 0.018153 0.00894s0.00603 0.00894 0.013403 0.00894c0.00737 0 0.013404 0.00603 0.013404 0.013404 0 0.00834 0.00844 0.013404 0.02234 0.013404 0.012288 0 0.02234 0.00402 0.02234 0.00894s0.00603 0.00894 0.013404 0.00894c0.00737 0 0.013404 0.00431 0.013404 0.00957 0 0.01577 0.024258 0.035105 0.044041 0.035105 0.010496 0 0.01851 0.0058 0.01851 0.013404 0 0.00737 0.00603 0.013404 0.013404 0.013404 0.00737 0 0.013404 0.00603 0.013404 0.013404 0 0.00737 0.00603 0.013404 0.013404 0.013404 0.0076 0 0.013404 0.00801 0.013404 0.01851 0 0.019783 0.019336 0.044041 0.035106 0.044041 0.00527 0 0.00957 0.00603 0.00957 0.013404 0 0.00737 0.00402 0.013404 0.00894 0.013404s0.00894 0.010053 0.00894 0.02234c0 0.0139 0.00506 0.02234 0.013403 0.02234 0.00737 0 0.013404 0.00603 0.013404 0.013404 0 0.00737 0.00402 0.013404 0.00894 0.013404s0.00894 0.00817 0.00894 0.018153c0 0.00998 0.00603 0.020467 0.013404 0.023296 0.00737 0.00283 0.013404 0.014766 0.013404 0.026528 0 0.013051 0.00523 0.021383 0.013404 0.021383 0.00834 0 0.013404 0.00844 0.013404 0.02234 0 0.012288 0.00402 0.02234 0.00894 0.02234s0.00894 0.016085 0.00894 0.035744c0 0.025815 0.00372 0.035744 0.013404 0.035744 0.010127 0 0.013404 0.010922 0.013404 0.04468 0 0.024573 0.00402 0.04468 0.00894 0.04468 0.00568 0 0.00894 0.069998 0.00894 0.19212 0 0.12212-0.00326 0.19212-0.00894 0.19212-0.00492 0-0.00894 0.020106-0.00894 0.044679 0 0.033758-0.00328 0.04468-0.013404 0.04468-0.00968 0-0.013404 0.00993-0.013404 0.035744 0 0.019659-0.00402 0.035744-0.00894 0.035744s-0.00894 0.010053-0.00894 0.02234c0 0.0139-0.00506 0.02234-0.013404 0.02234-0.00818 0-0.013404 0.00833-0.013404 0.021384 0 0.011762-0.00603 0.023698-0.013404 0.026527-0.00737 0.00283-0.013404 0.013313-0.013404 0.023296 0 0.00998-0.00402 0.018152-0.00894 0.018152s-0.00894 0.012064-0.00894 0.026808-0.00431 0.026808-0.00957 0.026808c-0.012371 0-0.035106 0.022734-0.035106 0.035105 0 0.00527-0.00431 0.00957-0.00957 0.00957-0.01577 0-0.035106 0.024258-0.035106 0.044041 0 0.010496-0.0058 0.01851-0.013404 0.01851-0.00737 0-0.013403 0.00603-0.013403 0.013404 0 0.00737-0.00603 0.013404-0.013404 0.013404-0.00737 0-0.013404 0.00603-0.013404 0.013404 0 0.0076-0.00801 0.013404-0.01851 0.013404-0.019783 0-0.044041 0.019336-0.044041 0.035105 0 0.00527-0.00431 0.00957-0.00957 0.00957-0.012371 0-0.035106 0.022734-0.035106 0.035106 0 0.00527-0.012064 0.00957-0.026808 0.00957s-0.026808 0.00402-0.026808 0.00894-0.00817 0.00894-0.018153 0.00894c-0.00998 0-0.020467 0.00603-0.023295 0.013404-0.00283 0.00737-0.014766 0.013404-0.026528 0.013404-0.013051 0-0.021384 0.00523-0.021384 0.013404 0 0.00834-0.00844 0.013404-0.02234 0.013404-0.012288 0-0.02234 0.00402-0.02234 0.00894s-0.016085 0.00894-0.035744 0.00894c-0.025815 0-0.035743 0.00372-0.035743 0.013404 0 0.010127-0.010922 0.013404-0.04468 0.013404-0.024574 0-0.04468 0.00402-0.04468 0.00894 0 0.00566-0.06553 0.00894-0.17872 0.00894-0.11319 0-0.17872-0.00328-0.17872-0.00894zm0.27378-0.29042c0.0036-0.00939 0.018245-0.013404 0.048868-0.013404 0.024048 0 0.043723-0.00402 0.043723-0.00894s0.00817-0.00894 0.018152-0.00894c0.00998 0 0.020467-0.00603 0.023296-0.013404 0.00283-0.00737 0.014766-0.013403 0.026527-0.013403 0.013049 0 0.021384-0.00523 0.021384-0.013404 0-0.00834 0.00844-0.013404 0.02234-0.013404 0.012288 0 0.02234-0.00402 0.02234-0.00894s0.00603-0.00894 0.013404-0.00894c0.00737 0 0.013404-0.00603 0.013404-0.013404 0-0.00759 0.00801-0.013404 0.018454-0.013404 0.024167 0 0.11558-0.091417 0.11558-0.11558 0-0.010447 0.00582-0.018455 0.013403-0.018455 0.00737 0 0.013404-0.00603 0.013404-0.013404 0-0.00737 0.00402-0.013404 0.00894-0.013404s0.00894-0.010054 0.00894-0.02234c0-0.0139 0.00506-0.02234 0.013404-0.02234 0.00818 0 0.013403-0.00833 0.013403-0.021384 0-0.011762 0.00603-0.023698 0.013404-0.026527 0.00737-0.00283 0.013404-0.013313 0.013404-0.023296 0-0.00998 0.00402-0.018153 0.00894-0.018153s0.00894-0.019675 0.00894-0.043723c0-0.030622 0.00402-0.045265 0.013404-0.048867 0.010846-0.00416 0.013403-0.024868 0.013403-0.10847 0-0.083601-0.00256-0.10431-0.013403-0.10847-0.00939-0.0036-0.013404-0.018245-0.013404-0.048867 0-0.024048-0.00402-0.043723-0.00894-0.043723s-0.00894-0.00817-0.00894-0.018153c0-0.00998-0.00603-0.020467-0.013404-0.023296-0.00737-0.00283-0.013404-0.014766-0.013404-0.026527 0-0.013049-0.00523-0.021384-0.013403-0.021384-0.00834 0-0.013404-0.00844-0.013404-0.02234 0-0.012288-0.00402-0.02234-0.00894-0.02234s-0.00894-0.00603-0.00894-0.013404c0-0.00737-0.00603-0.013404-0.013404-0.013404-0.00759 0-0.013403-0.00801-0.013403-0.018455 0-0.024167-0.091417-0.11558-0.11558-0.11558-0.010447 0-0.018454-0.00582-0.018454-0.013404 0-0.00737-0.00603-0.013404-0.013404-0.013404-0.00737 0-0.013404-0.00402-0.013404-0.00894s-0.010053-0.00894-0.02234-0.00894c-0.0139 0-0.02234-0.00506-0.02234-0.013404 0-0.00818-0.00833-0.013404-0.021384-0.013404-0.011762 0-0.023698-0.00603-0.026527-0.013404-0.00323-0.00841-0.016893-0.013404-0.0367-0.013404-0.017356 0-0.031556-0.00402-0.031556-0.00894s-0.020106-0.00894-0.04468-0.00894c-0.033758 0-0.04468-0.00328-0.04468-0.013404 0-0.010975-0.015389-0.013404-0.084891-0.013404s-0.084891 0.00243-0.084891 0.013404c0 0.010128-0.010922 0.013404-0.04468 0.013404-0.024573 0-0.04468 0.00402-0.04468 0.00894s-0.0142 0.00894-0.031556 0.00894c-0.019807 0-0.033471 0.00499-0.0367 0.013404-0.00283 0.00737-0.014766 0.013404-0.026527 0.013404-0.013049 0-0.021383 0.00523-0.021383 0.013404 0 0.00834-0.00844 0.013404-0.02234 0.013404-0.012288 0-0.02234 0.00402-0.02234 0.00894s-0.00603 0.00894-0.013404 0.00894c-0.00737 0-0.013404 0.00431-0.013404 0.00957 0 0.014568-0.023676 0.035106-0.040467 0.035106-0.019374 0-0.0757 0.056327-0.0757 0.0757 0 0.016792-0.020539 0.040467-0.035106 0.040467-0.00527 0-0.00957 0.00603-0.00957 0.013404 0 0.00737-0.00402 0.013404-0.00894 0.013404s-0.00894 0.010053-0.00894 0.02234c0 0.0139-0.00506 0.02234-0.013404 0.02234-0.00818 0-0.013404 0.00833-0.013404 0.021384 0 0.011762-0.00603 0.023698-0.013404 0.026527-0.00841 0.00323-0.013404 0.016893-0.013404 0.0367 0 0.017356-0.00402 0.031556-0.00894 0.031556s-0.00894 0.020106-0.00894 0.04468c0 0.033758-0.00328 0.04468-0.013404 0.04468-0.010975 0-0.013404 0.015389-0.013404 0.084892 0 0.069502 0.00243 0.084891 0.013404 0.084891 0.010128 0 0.013404 0.010922 0.013404 0.04468 0 0.024574 0.00402 0.04468 0.00894 0.04468s0.00894 0.0142 0.00894 0.031556c0 0.019807 0.00499 0.033471 0.013404 0.0367 0.00737 0.00283 0.013404 0.014766 0.013404 0.026527 0 0.013051 0.00523 0.021384 0.013404 0.021384 0.00834 0 0.013404 0.00844 0.013404 0.02234 0 0.012286 0.00402 0.02234 0.00894 0.02234s0.00894 0.00603 0.00894 0.013404c0 0.00737 0.00431 0.013404 0.00957 0.013404 0.014567 0 0.035106 0.023676 0.035106 0.040467 0 0.019373 0.056327 0.0757 0.0757 0.0757 0.016791 0 0.040467 0.020539 0.040467 0.035106 0 0.00527 0.00603 0.00957 0.013404 0.00957 0.00737 0 0.013404 0.00402 0.013404 0.00894s0.010054 0.00894 0.02234 0.00894c0.0139 0 0.02234 0.00506 0.02234 0.013404 0 0.00818 0.00833 0.013404 0.021383 0.013404 0.011762 0 0.023698 0.00603 0.026527 0.013404 0.00323 0.00841 0.016893 0.013404 0.0367 0.013404 0.017356 0 0.031556 0.00402 0.031556 0.00894s0.013645 0.00894 0.03032 0.00894c0.018708 0 0.03229 0.00513 0.035463 0.013403 0.00416 0.010845 0.024867 0.013404 0.10847 0.013404 0.0836 0 0.10431-0.00256 0.10847-0.013404z" stroke-width=".033774"/></svg>
