<svg width="23" height="20" viewBox="0 0 23 20" fill="none" xmlns="http://www.w3.org/2000/svg">
<path d="M8.71484 16.1934C8.60352 15.9707 8.41797 15.9336 8.34375 15.9336C8.23242 15.9336 8.04688 15.9707 7.93555 16.1562L7.67578 16.75C7.41602 17.1953 6.74805 17.1582 6.5625 16.6758L5.96875 14.7832L5.56055 15.9707C5.33789 16.6387 4.74414 17.0469 4.03906 17.0469H3.59375C3.25977 17.0469 3 16.7871 3 16.4531C3 16.1562 3.25977 15.8594 3.59375 15.8594H4.03906C4.22461 15.8594 4.37305 15.748 4.44727 15.5996L5.11523 13.5586C5.22656 13.1875 5.56055 12.9648 5.96875 12.9648C6.33984 12.9648 6.67383 13.1875 6.78516 13.5586L7.30469 15.1172C8.04688 14.5234 9.30859 14.7461 9.75391 15.6367C9.82812 15.7852 9.97656 15.8594 10.125 15.8594V12.8164L14.875 8.10352V6.35938H9.82812C9.30859 6.35938 8.9375 5.98828 8.9375 5.46875V0.421875H1.51562C0.996094 0.421875 0.625 0.830078 0.625 1.3125V18.5312C0.625 19.0508 0.996094 19.4219 1.51562 19.4219H13.9844C14.4668 19.4219 14.875 19.0508 14.875 18.5312V17.0469H10.125C9.49414 17.0469 8.97461 16.7129 8.71484 16.1934ZM14.875 4.94922C14.875 4.72656 14.7637 4.50391 14.6152 4.31836L10.9785 0.681641C10.793 0.533203 10.5703 0.421875 10.3477 0.421875H10.125V5.17188H14.875V4.94922ZM11.3125 13.2988V15.8594H13.8359L19.8477 9.84766L17.3242 7.32422L11.3125 13.2988ZM21.7031 6.65625L20.5156 5.46875C20.1445 5.09766 19.5508 5.09766 19.1797 5.46875L18.1777 6.4707L20.7012 8.99414L21.7031 7.99219C22.0742 7.62109 22.0742 7.02734 21.7031 6.65625Z" fill="white"/>
</svg>
