<svg width="19" height="21" viewBox="0 0 19 21" fill="none" xmlns="http://www.w3.org/2000/svg">
<path d="M12.8234 12.375C11.6906 12.375 11.1827 13 9.3468 13C7.4718 13 6.96399 12.375 5.83118 12.375C2.94055 12.375 0.596802 14.7578 0.596802 17.6484V18.625C0.596802 19.6797 1.41711 20.5 2.4718 20.5H16.2218C17.2374 20.5 18.0968 19.6797 18.0968 18.625V17.6484C18.0968 14.7578 15.714 12.375 12.8234 12.375ZM16.2218 18.625H2.4718V17.6484C2.4718 15.7734 3.95618 14.25 5.83118 14.25C6.41711 14.25 7.31555 14.875 9.3468 14.875C11.339 14.875 12.2374 14.25 12.8234 14.25C14.6984 14.25 16.2218 15.7734 16.2218 17.6484V18.625ZM9.3468 11.75C12.4327 11.75 14.9718 9.25 14.9718 6.125C14.9718 3.03906 12.4327 0.5 9.3468 0.5C6.2218 0.5 3.7218 3.03906 3.7218 6.125C3.7218 9.25 6.2218 11.75 9.3468 11.75ZM9.3468 2.375C11.3781 2.375 13.0968 4.09375 13.0968 6.125C13.0968 8.19531 11.3781 9.875 9.3468 9.875C7.27649 9.875 5.5968 8.19531 5.5968 6.125C5.5968 4.09375 7.27649 2.375 9.3468 2.375Z" fill="white"/>
</svg>
