<svg width="20" height="18" viewBox="0 0 20 18" fill="none" xmlns="http://www.w3.org/2000/svg">
<path d="M17.7324 4.17188H3.59375C3.25977 4.17188 3 3.91211 3 3.57812C3 3.28125 3.25977 2.98438 3.59375 2.98438H17.8438C18.1406 2.98438 18.4375 2.72461 18.4375 2.39062C18.4375 1.42578 17.6211 0.609375 16.6562 0.609375H3C1.66406 0.609375 0.625 1.68555 0.625 2.98438V14.8594C0.625 16.1953 1.66406 17.2344 3 17.2344H17.7324C18.7715 17.2344 19.625 16.4551 19.625 15.4531V5.95312C19.625 4.98828 18.7715 4.17188 17.7324 4.17188ZM16.0625 11.8906C15.3945 11.8906 14.875 11.3711 14.875 10.7031C14.875 10.0723 15.3945 9.51562 16.0625 9.51562C16.6934 9.51562 17.25 10.0723 17.25 10.7031C17.25 11.3711 16.6934 11.8906 16.0625 11.8906Z" fill="white"/>
</svg>
